<svg xmlns="http://www.w3.org/2000/svg" width="166.329" height="95.18" viewBox="0 0 166.329 95.18">
  <g id="Groupe_3585" data-name="Groupe 3585" transform="translate(-1086.565 -751.197)">
    <g id="Groupe_3623" data-name="Groupe 3623">
      <path id="Tracé_12474" data-name="Tracé 12474" d="M1086.565,795.985a30.38,30.38,0,1,1,30.378,30.376A30.413,30.413,0,0,1,1086.565,795.985Zm6.754,0a23.627,23.627,0,1,0,23.624-23.631A23.651,23.651,0,0,0,1093.319,795.985Z" fill="#fff"/>
    </g>
    <path id="Tracé_12475" data-name="Tracé 12475" d="M1158.2,840.77h48.451c1.691-.62,3.36-1.28,4.989-2.021-18.031.02-36.438-6.117-51.061-15.58-25.137-13.309-33.5-44.78-29.058-71.971H1112.08v23.469A70.434,70.434,0,0,0,1158.2,840.77Z" fill="#ebebeb"/>
    <path id="Tracé_12476" data-name="Tracé 12476" d="M1252.894,774.666V751.2H1131.526c-4.44,27.19,3.921,58.662,29.058,71.971,14.623,9.463,33.029,15.6,51.061,15.58A70.4,70.4,0,0,0,1252.894,774.666Z" fill="#fff"/>
    <rect id="Rectangle_417" data-name="Rectangle 417" width="29.392" height="32.294" transform="translate(1195.006 761.147)" fill="#c5d1c7"/>
    <g id="Groupe_3624" data-name="Groupe 3624">
      <rect id="Rectangle_419" data-name="Rectangle 419" width="1.243" height="9.95" transform="translate(1209.525 751.197)"/>
    </g>
    <path id="Tracé_12477" data-name="Tracé 12477" d="M1220.3,843.573a2.8,2.8,0,0,1-2.8,2.8h-70.8a2.8,2.8,0,0,1-2.8-2.8h0a2.8,2.8,0,0,1,2.8-2.8h70.8a2.8,2.8,0,0,1,2.8,2.8Z" fill="#ebebeb"/>
  </g>
</svg>
