<svg xmlns="http://www.w3.org/2000/svg" width="1920.001" height="1079.742" viewBox="0 0 1920.001 1079.742">
  <g id="Groupe_3889" data-name="Groupe 3889" transform="translate(-0.009 -0.26)">
    <g id="Groupe_3888" data-name="Groupe 3888">
      <path id="Tracé_13066" data-name="Tracé 13066" d="M960.51,1079.95H1.02V1.25H954.64c2,0,4,.04,5.99.07-.04,2-.12,3.99-.12,5.99ZM928.52,942.28v-4.17q0-191.73-.03-383.47a67.9,67.9,0,0,0-2.06-17.79c-4.34-16.05-12.36-29.05-29.54-33.97-2.81-.81-5.02-2.58-7.39-4.06-23.98-14.92-36.91-36.34-35.69-64.74,1.19-27.77,15.66-47.74,39.88-60.81,10.7-5.78,22.38-8.13,34.62-8.58v-74.8c-8.67.01-16.9,1.68-25.17,2.97a309.414,309.414,0,0,0-79.79,23.98,326.388,326.388,0,0,0-97.17,67.08,15.545,15.545,0,0,0-4.45,8.06c-7.81,36.2-18.68,71.45-34.35,105.04-13.17,28.25-28.2,55.37-53.69,75.44,1.7,1.85,3.35,3.68,5.05,5.47,33.3,35.06,64.78,71.72,95.52,109.01,33.43,40.55,65.33,82.3,94.31,126.17,25.62,38.78,50.59,77.98,65.49,122.52.31.93.34,2.17,2,2.44C906.61,939.81,917.17,941.66,928.52,942.28ZM824.15,311.25c-7.12-10.05-13.76-19.59-20.58-29-7.8-10.76-15.73-21.42-23.65-32.09-5.1-6.86-10.08-13.83-15.5-20.44-7.22-8.81-14.63-17.51-21.62-26.46-10.55-13.49-22.16-26.03-33.05-39.21-6.56-7.94-14.17-15-21.13-22.63-7.77-8.52-16.26-16.47-24.67-24.32-8.86-8.27-18.06-16.34-27.69-23.88-12.73-9.97-25.78-19.29-39.96-27.08a82.243,82.243,0,0,0-42.37-10.41,48.007,48.007,0,0,1,16.7,3.95c14.51,6.27,25.05,17.3,34.59,29.4,16.72,21.22,28.73,45.15,39.35,69.79,25.92,60.11,41.72,123.2,54.53,187.13,4.08,20.35,7.43,40.85,11.1,61.19a6.959,6.959,0,0,0,.87-1.65c.91-3.69,1.54-7.46,2.68-11.08,1.17-3.71.89-7.87,4.01-11a331.083,331.083,0,0,1,73.39-55.86C801.71,321.69,812.67,316.61,824.15,311.25Zm104.1,178.44V404.78c-10.33.34-19.15,3.7-26.43,10.64-20.41,19.45-13.47,50.42,6.33,61.01A106.148,106.148,0,0,1,928.25,489.69Z" fill="#cfd1dc"/>
      <path id="Tracé_13067" data-name="Tracé 13067" d="M960.51,1079.95q0-536.325.01-1072.64c0-2,.08-3.99.12-5.99,2-.02,4-.07,5.99-.07h953.38v1078.7Zm30.15-714.17q-.03,47.475-.05,94.95.03,25.02.05,50.05c-.06,1.49-.17,2.99-.17,4.48q-.015,182.5,0,365.02c0,1.27-.44,2.67.95,4.08a308.848,308.848,0,0,0,30.81-4.11c20.04-3.58,39.34-9.54,58.42-16.52,3.64-1.33,3.92-3.12,3.81-6.14-.93-27.2,2.37-54.02,7.51-80.65.52-2.71-.17-3.95-2.11-5.31a49.987,49.987,0,0,1-17.58-21.85c-7.57-17.84-7.55-36.32-4.89-55.17,3.14-22.2,12.83-41.07,27.78-57.42,10.18-11.15,22.56-19.44,37.81-19.92,8.03-.26,10.43-3.69,13.14-9.69,12.9-28.53,27.54-56.08,47.28-80.61,3.58-4.44,6.72-9.44,12.01-12.27l-.09-.08a6.6,6.6,0,0,1-.54,1.83,441.178,441.178,0,0,0-24.03,44.15c-9.38,19.4-17.72,39.25-25.56,59.35a46.039,46.039,0,0,1,21.09,20.75c10.77,20.61,10.45,42.41,6.29,64.47-3.28,17.41-11.13,32.65-22.04,46.63-12.32,15.78-27.32,26-47.92,26.28-2.63.03-3.85.68-4.31,3.43-3.82,22.88-7.86,45.7-10.28,68.81-.71,6.79,1.04,11.53,5.03,16.1a50.788,50.788,0,0,0,6.67,6c10.61,8.5,22.44,12.84,36.51,10.83-1.48-2.91-2.83-5.35-4.01-7.88-5.16-11.13-5.58-22.75-4.65-34.82.4-5.15,2.55-7.75,6.31-10.14,15.51-9.89,29.6-21.59,42.92-34.19a343.321,343.321,0,0,0,30.79-33.54,315.634,315.634,0,0,0,32.08-48.25,323.838,323.838,0,0,0,31.98-86.46c4.74-21.9,6.66-44.04,7.57-66.31.46-11.38-1.07-22.71-1.76-34.06a257.98,257.98,0,0,0-6.45-43.14c-8.64-36.86-22.88-71.46-43.58-103.33a328.455,328.455,0,0,0-58.03-67.82c-14.47-12.79-29.55-24.69-46.29-34.32-6.1-3.51-10.42-7.73-11.06-15.05-.14-1.61-1.09-3.13-1.53-4.73-6.6-23.75-12.74-47.61-17.9-71.72-4.59-21.42-8.59-42.95-10.95-64.68-2.22-20.45-4.8-41.01-2.2-61.69a1.984,1.984,0,0,0-1-2.36,53.282,53.282,0,0,0-14.92,7.14c-18.23,12.33-30.91,29.54-41.72,48.2-16.13,27.84-27.06,57.77-34.39,89.03-2.48,10.59-6.36,21.21-6.64,31.89-.83,32.26-.21,64.56-.15,96.84Q990.655,348.8,990.66,365.78Zm422.32-12.52a6.612,6.612,0,0,0-1.54-.2c-42.73,10.5-83.89,5.05-123.58-12.84-17.54-7.91-34.11-17.9-45.78-33.63-13.55-18.27-30.55-31.09-52.2-38.03-20.82-6.68-41.84-8.73-63.35-4.14.21,4.47,1.21,6.97,3.7,8.34,16.35,8.94,31.38,19.71,45.92,31.35a337.382,337.382,0,0,1,46.01,44.91,317.256,317.256,0,0,1,43.75,67.15c1.65,3.38,3.77,4.62,7.19,4.6,1.33-.01,2.65.21,3.98.31,33.55,2.71,65.3-3.11,94.39-20.54C1390.2,389.3,1404.88,374.3,1412.98,353.26ZM1175.93,679.69a83.264,83.264,0,0,0-3.3-24.67c-9.26-33.91-40.7-43.27-66.99-20.05-11.12,9.82-18.71,22.01-23.9,35.65-8.96,23.54-11.51,47.49-1.78,71.45,5.63,13.87,15.08,24,30.99,25.52,14.19,1.35,25.56-5.1,35.27-14.6C1166.74,732.91,1174.68,707.6,1175.93,679.69Z" fill="#160d31"/>
      <path id="Tracé_13068" data-name="Tracé 13068" d="M1.02,1.25v1078.7c-.31-.22-1.04.51-1.01-.5.04-1.33.01-2.66.01-3.99V.26q957.75,0,1915.49.06C1916.96.32,4,1.25,1.02,1.25Z" fill="#cfd1dc"/>
      <path id="Tracé_13069" data-name="Tracé 13069" d="M928.52,942.28c-11.36-.61-21.91-2.47-32.49-4.19-1.66-.27-1.69-1.51-2-2.44-14.9-44.54-39.87-83.74-65.49-122.52-28.98-43.87-60.88-85.62-94.31-126.17-30.74-37.29-62.22-73.95-95.52-109.01-1.7-1.79-3.34-3.62-5.05-5.47,25.49-20.08,40.52-47.2,53.69-75.44C703.02,463.45,713.89,428.2,721.7,392a15.545,15.545,0,0,1,4.45-8.06,326.26,326.26,0,0,1,97.17-67.08,309.027,309.027,0,0,1,79.79-23.98c8.27-1.29,16.5-2.96,25.17-2.97v74.8c-12.23.45-23.91,2.8-34.62,8.58-24.21,13.07-38.69,33.04-39.88,60.81-1.22,28.4,11.72,49.82,35.69,64.74,2.38,1.48,4.58,3.25,7.39,4.06,17.18,4.92,25.2,17.92,29.54,33.97a68.325,68.325,0,0,1,2.06,17.79q.06,191.73.03,383.47C928.52,939.25,928.52,940.39,928.52,942.28ZM856.93,604.17c-.91-21.5-10.25-41.56-28.7-56.98-11.36-9.5-24.55-14.9-39.67-12.33-18.59,3.16-32.16,19.57-33.05,40.29-1.31,30.69,10.85,54.88,36.86,71.57,16.3,10.46,36.55,9.47,49.66-2.29C853.2,634.43,856.82,621.2,856.93,604.17Z" fill="#160d31"/>
      <path id="Tracé_13070" data-name="Tracé 13070" d="M824.15,311.25c-11.48,5.36-22.44,10.44-32.99,16.35a330.925,330.925,0,0,0-73.39,55.86c-3.11,3.14-2.84,7.29-4.01,11-1.14,3.61-1.76,7.39-2.68,11.08a7.158,7.158,0,0,1-.87,1.65c-3.67-20.34-7.02-40.84-11.1-61.19-12.81-63.93-28.61-127.02-54.53-187.13-10.62-24.64-22.63-48.57-39.35-69.79-9.54-12.1-20.08-23.13-34.59-29.4a47.785,47.785,0,0,0-16.7-3.95,82.415,82.415,0,0,1,42.37,10.41c14.18,7.8,27.23,17.11,39.96,27.08,9.63,7.54,18.83,15.62,27.69,23.88,8.41,7.85,16.9,15.8,24.67,24.32,6.96,7.63,14.57,14.69,21.13,22.63,10.89,13.17,22.5,25.71,33.05,39.21,6.99,8.94,14.4,17.64,21.62,26.46,5.41,6.61,10.4,13.58,15.5,20.44,7.92,10.67,15.85,21.33,23.65,32.09C810.39,291.66,817.03,301.2,824.15,311.25Z" fill="#160d31"/>
      <path id="Tracé_13071" data-name="Tracé 13071" d="M928.25,489.69a106.636,106.636,0,0,0-20.1-13.26c-19.79-10.6-26.73-41.56-6.33-61.01,7.28-6.94,16.09-10.3,26.43-10.64Z" fill="#160d31"/>
      <path id="Tracé_13072" data-name="Tracé 13072" d="M1205.43,514.69c-5.29,2.82-8.44,7.83-12.01,12.27-19.73,24.52-34.38,52.08-47.28,80.61-2.71,6-5.11,9.43-13.14,9.69-15.24.49-27.62,8.78-37.81,19.92-14.95,16.36-24.64,35.23-27.78,57.42-2.67,18.85-2.68,37.33,4.89,55.17a50.17,50.17,0,0,0,17.58,21.85c1.94,1.36,2.63,2.6,2.11,5.31-5.14,26.63-8.44,53.45-7.51,80.65.1,3.02-.17,4.81-3.81,6.14-19.07,6.98-38.38,12.94-58.42,16.52a308.812,308.812,0,0,1-30.81,4.11c-1.39-1.4-.95-2.81-.95-4.08q-.03-182.5,0-365.02c0-1.49.11-2.99.17-4.49,20.2-.63,38.2-7.02,54.04-19.81a83.626,83.626,0,0,0,23.17-28.9c7.96-16.55,11.4-34.05,8.8-52.69-2.99-21.47-12.12-39.69-27.8-54.25-16.24-15.08-35.75-23.15-58.21-23.29-.06-32.28-.68-64.58.15-96.84.28-10.68,4.15-21.3,6.64-31.89,7.33-31.26,18.26-61.19,34.39-89.03,10.81-18.66,23.49-35.87,41.72-48.2a53.017,53.017,0,0,1,14.92-7.14,1.984,1.984,0,0,1,1,2.36c-2.6,20.68-.02,41.24,2.2,61.69,2.36,21.73,6.36,43.26,10.95,64.68,5.17,24.12,11.3,47.97,17.9,71.72.44,1.6,1.39,3.12,1.53,4.73.64,7.32,4.96,11.54,11.06,15.05,16.74,9.63,31.82,21.53,46.29,34.32a328.76,328.76,0,0,1,58.03,67.82c20.7,31.87,34.94,66.47,43.58,103.33a257.8,257.8,0,0,1,6.45,43.14c.69,11.35,2.23,22.68,1.76,34.06-.91,22.27-2.82,44.42-7.57,66.31a323.627,323.627,0,0,1-31.98,86.46,316.617,316.617,0,0,1-32.08,48.25,340.81,340.81,0,0,1-30.79,33.54c-13.33,12.6-27.42,24.3-42.92,34.19-3.76,2.4-5.91,5-6.31,10.14-.93,12.06-.51,23.69,4.65,34.82,1.17,2.53,2.52,4.97,4.01,7.88-14.07,2.01-25.9-2.33-36.51-10.83a50.8,50.8,0,0,1-6.67-6c-3.99-4.57-5.74-9.31-5.03-16.1,2.42-23.11,6.46-45.93,10.28-68.81.46-2.74,1.68-3.39,4.31-3.43,20.6-.27,35.6-10.5,47.92-26.28,10.91-13.98,18.76-29.22,22.04-46.63,4.16-22.05,4.47-43.86-6.29-64.47a46.04,46.04,0,0,0-21.09-20.75c7.85-20.11,16.19-39.95,25.56-59.35a441.185,441.185,0,0,1,24.03-44.15,6.817,6.817,0,0,0,.54-1.83l.72-.36-.45-.36C1205.54,514.15,1205.49,514.42,1205.43,514.69Z" fill="#cfd1dc"/>
      <path id="Tracé_13073" data-name="Tracé 13073" d="M1412.98,353.26c-8.1,21.04-22.79,36.05-41.51,47.27-29.09,17.43-60.84,23.25-94.39,20.54-1.33-.11-2.65-.32-3.98-.31-3.43.03-5.55-1.21-7.19-4.6a317.509,317.509,0,0,0-43.75-67.15,337.384,337.384,0,0,0-46.01-44.91c-14.54-11.64-29.57-22.41-45.92-31.35-2.49-1.36-3.49-3.87-3.7-8.34,21.5-4.58,42.52-2.53,63.35,4.14,21.65,6.94,38.65,19.76,52.2,38.03,11.67,15.73,28.24,25.72,45.78,33.63,39.69,17.89,80.85,23.34,123.58,12.84A6.8,6.8,0,0,1,1412.98,353.26Z" fill="#cfd1dc"/>
      <path id="Tracé_13074" data-name="Tracé 13074" d="M1175.93,679.69c-1.24,27.91-9.19,53.21-29.72,73.3-9.7,9.49-21.08,15.95-35.27,14.6-15.91-1.52-25.37-11.65-30.99-25.52-9.72-23.96-7.18-47.91,1.78-71.45,5.2-13.64,12.78-25.83,23.9-35.65,26.29-23.21,57.74-13.86,66.99,20.05A83,83,0,0,1,1175.93,679.69Z" fill="#cfd1dc"/>
      <path id="Tracé_13075" data-name="Tracé 13075" d="M990.66,331.84c22.46.14,41.97,8.2,58.21,23.29,15.68,14.56,24.81,32.79,27.8,54.25,2.6,18.64-.84,36.14-8.8,52.69a83.626,83.626,0,0,1-23.17,28.9c-15.83,12.79-33.83,19.18-54.04,19.81q-.03-25.02-.05-50.05c12.23-.7,22.24-6.42,30.75-14.61,16.76-16.13,19.06-40.8,5.16-59.78-8.72-11.9-20.67-19.34-35.86-20.56Q990.66,348.8,990.66,331.84Z" fill="#da8493"/>
      <path id="Tracé_13076" data-name="Tracé 13076" d="M990.66,365.78c15.19,1.22,27.14,8.66,35.86,20.56,13.9,18.98,11.6,43.64-5.16,59.78-8.51,8.19-18.52,13.91-30.75,14.61Q990.64,413.255,990.66,365.78Z" fill="#cfd1dc"/>
      <path id="Tracé_13077" data-name="Tracé 13077" d="M856.93,604.17c-.11,17.03-3.74,30.26-14.89,40.26-13.12,11.76-33.37,12.74-49.66,2.29-26.01-16.68-38.17-40.87-36.86-71.57.89-20.72,14.46-37.13,33.05-40.29,15.12-2.57,28.31,2.83,39.67,12.33C846.69,562.6,856.03,582.67,856.93,604.17Z" fill="#cfd1dc"/>
      <path id="Tracé_13078" data-name="Tracé 13078" d="M1205.43,514.69c.06-.27.11-.54.17-.81l.45.36-.72.36C1205.34,514.61,1205.43,514.69,1205.43,514.69Z" fill="#160d31"/>
    </g>
  </g>
</svg>
