<svg xmlns="http://www.w3.org/2000/svg" width="930.479" height="1054.5" viewBox="0 0 930.479 1054.5">
  <g id="Groupe_3515" data-name="Groupe 3515" transform="translate(-0.006)">
    <g id="Groupe_3510" data-name="Groupe 3510" transform="translate(0.006 2.231)">
      <path id="Tracé_12275" data-name="Tracé 12275" d="M852.739,2.4H31.215A18.916,18.916,0,0,0,12.3,21.315v1.694A18.916,18.916,0,0,0,31.215,41.924H852.739a18.916,18.916,0,0,0,18.915-18.915V21.315A19.1,19.1,0,0,0,852.739,2.4Z" transform="translate(22.407 2.145)" fill="#212121"/>
      <ellipse id="Ellipse_29" data-name="Ellipse 29" cx="22.303" cy="24.279" rx="22.303" ry="24.279" transform="translate(885.874 0.028)" fill="#212121"/>
      <path id="Tracé_12276" data-name="Tracé 12276" d="M41.771,12.675C52.216,35.26,31.607,57.845,11,46.27a22.284,22.284,0,0,1-8.187-8.752C-7.634,14.933,12.975-7.651,33.584,3.923A19.051,19.051,0,0,1,41.771,12.675Z" transform="translate(-0.006 -0.79)" fill="#212121"/>
    </g>
    <g id="Groupe_3512" data-name="Groupe 3512" transform="translate(51.651)">
      <path id="Tracé_12277" data-name="Tracé 12277" d="M228.622,26.982V980.346s-6.211,17.221-77.918,0c-71.989-17.221-13.269-38.959-64.931,7.622s-67.472-12.7-67.472-12.7L36.368,26.7H228.622Z" transform="translate(-18.3 48.677)" fill="#fff"/>
      <path id="Tracé_12278" data-name="Tracé 12278" d="M53.817,711.824C53.817,697.708,49.3,161.6,49.3,161.6L93.058,734.409C93.058,734.691,53.817,725.939,53.817,711.824Z" transform="translate(38.216 294.614)" fill="#e2e3e4"/>
      <g id="Groupe_3511" data-name="Groupe 3511" transform="translate(39.806)">
        <path id="Tracé_12279" data-name="Tracé 12279" d="M37.482,84.693h-.565A4.459,4.459,0,0,1,32.4,80.176V4.517A4.85,4.85,0,0,1,36.917,0h.565A4.459,4.459,0,0,1,42,4.517V80.459A4.822,4.822,0,0,1,37.482,84.693Z" transform="translate(-32.4)" fill="#c98d6c"/>
        <path id="Tracé_12280" data-name="Tracé 12280" d="M54.882,84.693h-.565A4.459,4.459,0,0,1,49.8,80.176V4.517A4.459,4.459,0,0,1,54.317,0h.565A4.459,4.459,0,0,1,59.4,4.517V80.459A4.822,4.822,0,0,1,54.882,84.693Z" transform="translate(-0.678)" fill="#c98d6c"/>
        <path id="Tracé_12281" data-name="Tracé 12281" d="M72.182,84.693h-.565A4.459,4.459,0,0,1,67.1,80.176V4.517A4.459,4.459,0,0,1,71.617,0h.565A4.459,4.459,0,0,1,76.7,4.517V80.459A4.406,4.406,0,0,1,72.182,84.693Z" transform="translate(30.862)" fill="#c98d6c"/>
        <path id="Tracé_12282" data-name="Tracé 12282" d="M89.582,84.693h-.565A4.459,4.459,0,0,1,84.5,80.176V4.517A4.459,4.459,0,0,1,89.017,0h.565A4.459,4.459,0,0,1,94.1,4.517V80.459A4.406,4.406,0,0,1,89.582,84.693Z" transform="translate(62.584)" fill="#c98d6c"/>
      </g>
    </g>
    <g id="Groupe_3514" data-name="Groupe 3514" transform="translate(678.946)">
      <path id="Tracé_12283" data-name="Tracé 12283" d="M240.5,26.982V980.346s7.9,17.221,79.894,0,11.575-38.959,63.238,7.622,67.472-12.7,67.472-12.7L433.036,26.7H240.5Z" transform="translate(-240.5 48.677)" fill="#fff"/>
      <path id="Tracé_12284" data-name="Tracé 12284" d="M309.624,714.182c0-15.809,1.976-552.482,1.976-552.482L270.1,734.791S309.624,724.628,309.624,714.182Z" transform="translate(-186.536 294.797)" fill="#e2e3e4"/>
      <g id="Groupe_3513" data-name="Groupe 3513" transform="translate(16.939)">
        <path id="Tracé_12285" data-name="Tracé 12285" d="M251.582,84.693h-.565a4.459,4.459,0,0,1-4.517-4.517V4.517A4.459,4.459,0,0,1,251.017,0h.565A4.459,4.459,0,0,1,256.1,4.517V80.459A4.406,4.406,0,0,1,251.582,84.693Z" transform="translate(-246.5)" fill="#c98d6c"/>
        <path id="Tracé_12286" data-name="Tracé 12286" d="M268.982,84.693h-.565a4.459,4.459,0,0,1-4.517-4.517V4.517A4.459,4.459,0,0,1,268.417,0h.565A4.459,4.459,0,0,1,273.5,4.517V80.459A4.406,4.406,0,0,1,268.982,84.693Z" transform="translate(-214.778)" fill="#c98d6c"/>
        <path id="Tracé_12287" data-name="Tracé 12287" d="M286.382,84.693h-.565a4.459,4.459,0,0,1-4.517-4.517V4.517A4.459,4.459,0,0,1,285.817,0h.565A4.459,4.459,0,0,1,290.9,4.517V80.459A4.823,4.823,0,0,1,286.382,84.693Z" transform="translate(-183.056)" fill="#c98d6c"/>
        <path id="Tracé_12288" data-name="Tracé 12288" d="M303.782,84.693h-.565a4.459,4.459,0,0,1-4.517-4.517V4.517A4.459,4.459,0,0,1,303.217,0h.565A4.459,4.459,0,0,1,308.3,4.517V80.459A4.822,4.822,0,0,1,303.782,84.693Z" transform="translate(-151.334)" fill="#c98d6c"/>
      </g>
    </g>
  </g>
</svg>
