<svg xmlns="http://www.w3.org/2000/svg" width="877.063" height="79.831" viewBox="0 0 877.063 79.831">
  <g id="Groupe_3515" data-name="Groupe 3515" transform="translate(-0.006)">
    <g id="Groupe_3510" data-name="Groupe 3510" transform="translate(0.006 2.103)">
      <path id="Tracé_12275" data-name="Tracé 12275" d="M804.493,2.4H30.129A17.83,17.83,0,0,0,12.3,20.229v1.6A17.83,17.83,0,0,0,30.129,39.655H804.493a17.83,17.83,0,0,0,17.829-17.829v-1.6A18,18,0,0,0,804.493,2.4Z" transform="translate(20.414 1.884)" fill="#212121"/>
      <ellipse id="Ellipse_29" data-name="Ellipse 29" cx="21.022" cy="22.885" rx="21.022" ry="22.885" transform="translate(835.019 0.026)" fill="#212121"/>
      <path id="Tracé_12276" data-name="Tracé 12276" d="M39.373,11.993c9.846,21.288-9.58,42.577-29.005,31.666A21,21,0,0,1,2.651,35.41C-7.2,14.122,12.23-7.167,31.656,3.744A17.957,17.957,0,0,1,39.373,11.993Z" transform="translate(-0.006 -0.79)" fill="#212121"/>
    </g>
    <g id="Groupe_3512" data-name="Groupe 3512" transform="translate(86.207)">
      <g id="Groupe_3511" data-name="Groupe 3511" transform="translate(0)">
        <path id="Tracé_12279" data-name="Tracé 12279" d="M37.19,79.831h-.532A4.2,4.2,0,0,1,32.4,75.574V4.258A4.572,4.572,0,0,1,36.658,0h.532a4.2,4.2,0,0,1,4.258,4.258V75.84A4.546,4.546,0,0,1,37.19,79.831Z" transform="translate(-32.4)" fill="#c98d6c"/>
        <path id="Tracé_12280" data-name="Tracé 12280" d="M54.59,79.831h-.532A4.2,4.2,0,0,1,49.8,75.574V4.258A4.2,4.2,0,0,1,54.058,0h.532a4.2,4.2,0,0,1,4.258,4.258V75.84A4.546,4.546,0,0,1,54.59,79.831Z" transform="translate(-3.498)" fill="#c98d6c"/>
        <path id="Tracé_12281" data-name="Tracé 12281" d="M71.89,79.831h-.532A4.2,4.2,0,0,1,67.1,75.574V4.258A4.2,4.2,0,0,1,71.358,0h.532a4.2,4.2,0,0,1,4.258,4.258V75.84A4.153,4.153,0,0,1,71.89,79.831Z" transform="translate(25.238)" fill="#c98d6c"/>
        <path id="Tracé_12282" data-name="Tracé 12282" d="M89.29,79.831h-.532A4.2,4.2,0,0,1,84.5,75.574V4.258A4.2,4.2,0,0,1,88.758,0h.532a4.2,4.2,0,0,1,4.258,4.258V75.84A4.153,4.153,0,0,1,89.29,79.831Z" transform="translate(54.14)" fill="#c98d6c"/>
      </g>
    </g>
    <g id="Groupe_3514" data-name="Groupe 3514" transform="translate(645.937)">
      <g id="Groupe_3513" data-name="Groupe 3513" transform="translate(0)">
        <path id="Tracé_12285" data-name="Tracé 12285" d="M251.29,79.831h-.532a4.2,4.2,0,0,1-4.258-4.258V4.258A4.2,4.2,0,0,1,250.758,0h.532a4.2,4.2,0,0,1,4.258,4.258V75.84A4.153,4.153,0,0,1,251.29,79.831Z" transform="translate(-246.5)" fill="#c98d6c"/>
        <path id="Tracé_12286" data-name="Tracé 12286" d="M268.69,79.831h-.532a4.2,4.2,0,0,1-4.258-4.258V4.258A4.2,4.2,0,0,1,268.158,0h.532a4.2,4.2,0,0,1,4.258,4.258V75.84A4.153,4.153,0,0,1,268.69,79.831Z" transform="translate(-217.598)" fill="#c98d6c"/>
        <path id="Tracé_12287" data-name="Tracé 12287" d="M286.09,79.831h-.532a4.2,4.2,0,0,1-4.258-4.258V4.258A4.2,4.2,0,0,1,285.558,0h.532a4.2,4.2,0,0,1,4.258,4.258V75.84A4.546,4.546,0,0,1,286.09,79.831Z" transform="translate(-188.696)" fill="#c98d6c"/>
        <path id="Tracé_12288" data-name="Tracé 12288" d="M303.49,79.831h-.532a4.2,4.2,0,0,1-4.258-4.258V4.258A4.2,4.2,0,0,1,302.958,0h.532a4.2,4.2,0,0,1,4.258,4.258V75.84A4.546,4.546,0,0,1,303.49,79.831Z" transform="translate(-162.794)" fill="#c98d6c"/>
      </g>
    </g>
  </g>
</svg>
