<svg id="Groupe_3891" data-name="Groupe 3891" xmlns="http://www.w3.org/2000/svg" width="810" height="1440.011" viewBox="0 0 810 1440.011">
  <g id="Groupe_3890" data-name="Groupe 3890">
    <path id="Tracé_13079" data-name="Tracé 13079" d="M809.96.94v1438.3H412.73q-25.83,0-51.67-.04c.03-.75.09-1.49.09-2.24q0-259.125.05-518.24a9.416,9.416,0,0,0-1.8-5.49,170.687,170.687,0,0,1-19.98-40.57,168.934,168.934,0,0,1-8.55-43.85,142.307,142.307,0,0,1,8.07-56.93c8.4-23.47,22.46-43.2,40.84-59.9,7.94-7.22,16.31-13.88,26.05-18.59,2.64-1.27,5.31-2.47,8.13-3.78-6.48-10.02-12.47-19.91-18.1-30.02-11.79-21.14-22.3-42.83-28.37-66.41-2.84-11.05-4.58-22.2-2.61-33.64,1.13-6.58,4.4-12.38,6.84-18.46a1155.151,1155.151,0,0,0,38.15-109.07c8.54-29.45,15.75-59.18,17.83-89.9.37-5.39.05-10.83.05-16.34-8.18.45-14.71,3.72-20.79,7.96-13.61,9.51-24.7,21.66-35.35,34.24-3.38,3.99-6.68,8.05-10.47,12.61V5.46c0-1.5-.06-2.99-.09-4.49,1.62-.01,3.24-.04,4.87-.04Q587.95.945,809.96.94Zm-446,871a116.744,116.744,0,0,0,6.07,16.35c5.49,11.55,13.14,21.55,21.81,30.85,1.19,3.08,3.91,4.84,5.65,7.38.63-.41.96-.5,1.02-.68,1.07-3.43,2.16-6.85,3.15-10.31,5.91-20.61,8.68-41.42,4.51-62.8a94.972,94.972,0,0,0-17.95-40.08c-2.32-3.03-4.18-6.89-8.29-8.27-2.72-1.65-3.94-4.69-6.25-6.75-1.18-1.05-1.89-1.3-2.84,0-1.04.06-1.45.84-1.87,1.62a95.431,95.431,0,0,0-7.69,18.22c-4.85,16.68-4.2,33.42.36,50.07C362.07,869.11,361.97,871.13,363.96,871.94Zm273.68-28.56c-1.25.23-2.5.45-3.74.68a2.129,2.129,0,0,0-2.06-.58c-9.37,1.29-18.63,3-27.37,6.81-13.86,6.04-24.48,15.65-31.27,29.18-4.95,9.87-7.29,20.45-8.44,31.47-1.39,13.27.04,26.16,2.7,39.09,1.77-.11,3.19-.46,4.24-1.68,1.29,1,2.29,1.6,4.12.37,4.99-3.33,10.25-6.26,15.4-9.35,3.1-.02,5.27-2.13,7.7-3.56,17.23-10.14,31.47-23.23,39.63-41.88,6.84-15.63,7.53-31.75,2.57-48.1C640.55,843.97,639.6,843.04,637.64,843.38ZM508.54,736.54c2.77.65,5.03-.09,6.37,2.37a279.524,279.524,0,0,1,13.43,27.91c.53,1.3.53,2.23-.83,3.16-10.96,7.43-22.08,14.54-34.98,18.25-1.25.36-2.5.8-3.47-.34-4.59-5.4-9.44-10.58-13.55-16.38-1.25-1.76-1.07-3.03.51-4.5,2.83-2.63,5.56-5.39,8.22-8.2a4.666,4.666,0,0,1,5.07-1.29,140.458,140.458,0,0,1,14.36,4.06c1.21.44,2.49,1.36,4.05.27a20.44,20.44,0,0,0-3.67-16.48c-5.51-7.47-12.72-12.85-20.56-17.63-3.68-2.24-7.18-2.61-10.95-.73a99.091,99.091,0,0,0-11.48,6.27c-10.33,6.97-19.9,14.9-29.62,22.67-3.96,3.16-4,6.37-3.13,10.43,1.18,5.51,4.39,10.03,7.3,14.64,13.72,21.74,30.61,41.06,46.77,60.93a5.492,5.492,0,0,0,6.04,1.86,59.814,59.814,0,0,0,15.07-6.49c26.25-14.86,51.33-31.57,76.29-48.47,3.69-2.5,4.28-5.5,3.71-9.27a44.045,44.045,0,0,0-4.32-12.68c-4.55-9.34-10.51-17.79-16.5-26.23a427.075,427.075,0,0,0-27.18-34.13c-1.92-2.19-3.03-5.53-6.72-6.31C522.07,712.26,515.43,724.17,508.54,736.54Z" fill="#d4e4fe"/>
    <path id="Tracé_13080" data-name="Tracé 13080" d="M809.96.94H365.93c-1.62,0-3.24.02-4.87.04-.37-.02-.75-.04-1.12-.04Q181.635.94,3.32.96C2.5.96,1.56.62.94,1.34V1439.25H259.17q50.94,0,101.89-.04,25.83.015,51.67.04H809.96c-.16.23.38.78-.37.76-1-.03-2-.01-3-.01H0Q0,720.09,0,.19q403.29,0,806.59.05C807.69.24,809.13-.63,809.96.94Z" fill="rgba(254,254,254,0)"/>
    <path id="Tracé_13081" data-name="Tracé 13081" d="M361.06,1439.2q-50.94.03-101.89.04-126.99.015-253.98,0H.94V1.33C1.57.61,2.5.96,3.32.96Q181.64.93,359.94.94c.37,0,.75.03,1.12.04.03,1.5.09,2.99.09,4.49V380.59c3.78-4.56,7.09-8.62,10.47-12.61,10.65-12.58,21.73-24.74,35.35-34.24,6.08-4.25,12.6-7.51,20.79-7.96,0,5.51.31,10.95-.05,16.34-2.09,30.72-9.29,60.45-17.83,89.9a1155.156,1155.156,0,0,1-38.15,109.07c-2.45,6.08-5.71,11.88-6.84,18.46-1.97,11.44-.23,22.58,2.61,33.64,6.07,23.58,16.58,45.27,28.37,66.41,5.64,10.11,11.62,20,18.1,30.02-2.82,1.31-5.49,2.51-8.13,3.78-9.75,4.7-18.11,11.37-26.05,18.59-18.38,16.7-32.44,36.43-40.84,59.9a142.283,142.283,0,0,0-8.07,56.93,168.108,168.108,0,0,0,8.55,43.85,170.879,170.879,0,0,0,19.98,40.57,9.439,9.439,0,0,1,1.8,5.49q-.075,259.125-.05,518.24C361.15,1437.71,361.1,1438.46,361.06,1439.2ZM287.65,583.7c.68-3.66-.28-6.31-.72-8.96-2.47-14.97-6.83-29.23-16.24-41.52-10.52-13.74-26.56-18.7-42.56-12.68-9.63,3.62-17.55,9.87-24.26,17.57-14.55,16.73-22.72,36.56-27.91,57.84a6.524,6.524,0,0,0,1.29,6.11c4.37,5.74,8.6,11.58,12.88,17.4,4.88,6.64,9.74,13.28,15.16,20.69,0-2.37.03-3.7,0-5.03-.53-19.62.24-39.1,5.49-58.19,2.76-10.03,6.45-19.55,13.11-27.71,9.33-11.43,21.77-13.31,34.1-5.15a56.882,56.882,0,0,1,12.17,11.47C277.06,563.89,282.27,573.33,287.65,583.7ZM182.78,722.18c-.26-6.47-.65-12.44-2.2-18.24a103.4,103.4,0,0,0-23.67-43.84c-4.73-5.15-10.08-9.63-16.59-12.47-7.78-3.4-12.86-.91-14.77,7.32a42.835,42.835,0,0,0-.26,17.1c4.04,23.14,14.3,42.97,32.3,58.43a29.584,29.584,0,0,0,13.01,6.99c5.14,1.11,7.99-.39,10.06-5.25A32.391,32.391,0,0,0,182.78,722.18Z" fill="#0b1728"/>
    <path id="Tracé_13082" data-name="Tracé 13082" d="M508.54,736.54c6.89-12.37,13.54-24.28,20.24-36.3,3.68.78,4.79,4.12,6.72,6.31a425.28,425.28,0,0,1,27.18,34.13c5.99,8.43,11.95,16.89,16.5,26.23a44.349,44.349,0,0,1,4.32,12.68c.57,3.77-.02,6.77-3.71,9.27-24.96,16.9-50.04,33.61-76.29,48.47a60.021,60.021,0,0,1-15.07,6.49,5.476,5.476,0,0,1-6.04-1.86c-16.17-19.87-33.05-39.19-46.77-60.93-2.91-4.6-6.12-9.13-7.3-14.64-.87-4.06-.82-7.26,3.13-10.43,9.71-7.77,19.29-15.7,29.62-22.67a98.272,98.272,0,0,1,11.48-6.27c3.77-1.88,7.27-1.51,10.95.73,7.84,4.77,15.06,10.16,20.56,17.63a20.469,20.469,0,0,1,3.67,16.48c-1.55,1.09-2.84.16-4.05-.27a137.951,137.951,0,0,0-14.36-4.06,4.688,4.688,0,0,0-5.07,1.29c-2.66,2.81-5.38,5.57-8.22,8.2-1.58,1.47-1.76,2.74-.51,4.5,4.11,5.8,8.96,10.98,13.55,16.38.97,1.14,2.22.7,3.47.34,12.9-3.71,24.02-10.82,34.98-18.25,1.37-.93,1.36-1.86.83-3.16a277.33,277.33,0,0,0-13.43-27.91C513.57,736.45,511.3,737.19,508.54,736.54Zm-8.05,16.9a7.024,7.024,0,0,0-.27-1.5c-4.84-9.1-13.12-14.36-21.67-19.28a3.251,3.251,0,0,0-3.21.33c-3.07,1.65-6.25,3.1-9.21,4.92-10.18,6.28-19.39,13.88-28.49,21.6-4.26,3.62-4.22,3.56-1.89,8.5,2.94,6.22,6.8,11.87,10.67,17.5,11.91,17.33,25.47,33.38,38.7,49.68,2.31,2.84,4.53,1.63,6.84.57a243.291,243.291,0,0,0,24.82-13.68c19.52-11.89,38.43-24.75,57.57-37.23,2.38-1.55,3.02-3.29,2.36-5.9a59.737,59.737,0,0,0-6.89-15.66c-9.53-16.08-21.05-30.73-32.96-45.07-1.98-2.38-3.48-5.44-6.74-6.91-3.63,6.45-7.18,12.71-10.67,19.02-.57,1.02-1.38,2.03-.3,3.4,3.34,4.25,5.19,9.34,7.65,14.09a226.078,226.078,0,0,1,10.36,23.27c-1.13.81-1.94,1.39-2.75,1.96-13.56,9.51-27.31,18.64-43.8,22.44-1.28.29-2.32,1.2-3.65-.28-7.62-8.46-15.34-16.83-21.37-26.92,5.13-5.06,10.35-9.91,15.19-15.11,2.4-2.59,5-3,8.07-2.37C492.6,751.58,496.32,752.49,500.49,753.44Z" fill="#aedbe8"/>
    <path id="Tracé_13083" data-name="Tracé 13083" d="M571.7,948.33a5.594,5.594,0,0,1-4.24,1.68c-2.66-12.92-4.08-25.82-2.7-39.09,1.15-11.02,3.49-21.6,8.44-31.47,6.79-13.53,17.41-23.14,31.27-29.18,8.74-3.81,18-5.52,27.37-6.81a2.129,2.129,0,0,1,2.06.58c-3.46,2.49-7.51,3.75-11.42,5.18-2.67.98-3.78,2.28-3.61,5.14.73,12.03-2.97,23.08-8.13,33.64-9.72,19.9-22.81,37.47-37.97,53.53C570.72,943.72,569.7,945.69,571.7,948.33Z" fill="#aedbe8"/>
    <path id="Tracé_13084" data-name="Tracé 13084" d="M571.7,948.33c-2-2.64-.97-4.61,1.07-6.78,15.16-16.06,28.25-33.63,37.97-53.53,5.16-10.56,8.86-21.62,8.13-33.64-.17-2.86.94-4.16,3.61-5.14,3.91-1.43,7.96-2.7,11.42-5.18,1.25-.23,2.5-.45,3.74-.68,2.3,5.37,4.12,10.96,4.41,16.77.8,16.02-4.68,30.19-13.73,43.11-8.26,11.79-18.64,21.5-30.05,30.2-2.42,1.85-5.36,3.15-7.05,5.9-5.15,3.09-10.41,6.02-15.4,9.35C573.99,949.93,572.99,949.33,571.7,948.33Z" fill="#60bcd3"/>
    <path id="Tracé_13085" data-name="Tracé 13085" d="M370.84,797.63c.95-1.3,1.66-1.06,2.84,0,2.31,2.06,3.53,5.1,6.25,6.75,1.27,3.34,4.03,5.55,6.24,8.16,1.53,1.81,2.4,3.23.28,5.38a15.621,15.621,0,0,0-3.05,5.49c-4.13,10.78-3.18,21.79-1.65,32.78a258.357,258.357,0,0,0,13.79,53.23c2.34,6.39,2.33,6.39-3.7,9.73-8.66-9.3-16.32-19.3-21.81-30.85a116.285,116.285,0,0,1-6.07-16.35,119.231,119.231,0,0,1,.16-53.45C365.76,811.33,368.85,804.66,370.84,797.63Z" fill="#60bcd3"/>
    <path id="Tracé_13086" data-name="Tracé 13086" d="M391.84,919.14c6.03-3.34,6.04-3.34,3.7-9.73a259,259,0,0,1-13.79-53.23c-1.53-10.99-2.48-22,1.65-32.78a15.78,15.78,0,0,1,3.05-5.49c2.11-2.15,1.25-3.57-.28-5.38-2.21-2.61-4.98-4.82-6.24-8.16,4.11,1.38,5.97,5.24,8.29,8.27a94.972,94.972,0,0,1,17.95,40.08c4.17,21.38,1.41,42.19-4.51,62.8-.99,3.45-2.08,6.88-3.15,10.31-.06.18-.38.27-1.02.68C395.75,923.98,393.03,922.22,391.84,919.14Z" fill="#aedbe8"/>
    <path id="Tracé_13087" data-name="Tracé 13087" d="M591.22,939.36c1.69-2.74,4.63-4.05,7.05-5.9,11.4-8.7,21.78-18.41,30.05-30.2,9.06-12.92,14.53-27.09,13.73-43.11-.29-5.81-2.11-11.4-4.41-16.77,1.97-.34,2.92.59,3.48,2.44,4.96,16.35,4.27,32.47-2.57,48.1-8.16,18.65-22.4,31.74-39.63,41.88C596.48,937.22,594.32,939.34,591.22,939.36Z" fill="#aedbe8"/>
    <path id="Tracé_13088" data-name="Tracé 13088" d="M370.84,797.63c-1.99,7.03-5.08,13.69-6.72,20.86a119.232,119.232,0,0,0-.16,53.45c-1.99-.81-1.89-2.84-2.32-4.4-4.56-16.65-5.21-33.39-.36-50.07a95.428,95.428,0,0,1,7.69-18.22C369.39,798.47,369.81,797.7,370.84,797.63Z" fill="#aedbe8"/>
    <path id="Tracé_13089" data-name="Tracé 13089" d="M287.65,583.7c-5.38-10.37-10.58-19.82-17.5-28.17a56.632,56.632,0,0,0-12.17-11.47c-12.32-8.16-24.77-6.27-34.1,5.15-6.66,8.16-10.35,17.68-13.11,27.71-5.25,19.09-6.02,38.57-5.49,58.19.04,1.33,0,2.67,0,5.03-5.43-7.4-10.29-14.05-15.16-20.69-4.27-5.81-8.51-11.66-12.88-17.4a6.509,6.509,0,0,1-1.29-6.11c5.19-21.29,13.37-41.11,27.91-57.84,6.7-7.71,14.63-13.96,24.26-17.57,16-6.01,32.04-1.06,42.56,12.68,9.41,12.29,13.77,26.55,16.24,41.52C287.37,577.39,288.33,580.05,287.65,583.7Z" fill="#d4e4fe"/>
    <path id="Tracé_13090" data-name="Tracé 13090" d="M182.78,722.18a32.075,32.075,0,0,1-2.13,10.04c-2.06,4.86-4.92,6.36-10.06,5.25a29.584,29.584,0,0,1-13.01-6.99c-18-15.46-28.25-35.28-32.3-58.43a42.835,42.835,0,0,1,.26-17.1c1.91-8.23,7-10.72,14.77-7.32,6.51,2.85,11.87,7.32,16.59,12.47a103.285,103.285,0,0,1,23.67,43.84C182.13,709.74,182.52,715.71,182.78,722.18Z" fill="#aedbe8"/>
    <path id="Tracé_13091" data-name="Tracé 13091" d="M500.49,753.44c-4.17-.95-7.89-1.85-11.64-2.62-3.07-.63-5.67-.22-8.07,2.37-4.84,5.2-10.06,10.05-15.19,15.11,6.02,10.09,13.74,18.46,21.37,26.92,1.33,1.48,2.37.57,3.65.28,16.49-3.8,30.24-12.93,43.8-22.44.81-.57,1.62-1.15,2.75-1.96a226.078,226.078,0,0,0-10.36-23.27c-2.45-4.75-4.31-9.84-7.65-14.09-1.07-1.37-.26-2.37.3-3.4,3.49-6.3,7.05-12.57,10.67-19.02,3.26,1.47,4.76,4.52,6.74,6.91,11.91,14.34,23.44,28.99,32.96,45.07a60.071,60.071,0,0,1,6.89,15.66c.67,2.61.02,4.35-2.36,5.9-19.15,12.48-38.05,25.34-57.57,37.23a242.227,242.227,0,0,1-24.82,13.68c-2.31,1.06-4.53,2.28-6.84-.57-13.24-16.3-26.8-32.34-38.7-49.68-3.87-5.64-7.73-11.29-10.67-17.5-2.34-4.94-2.37-4.89,1.89-8.5,9.1-7.72,18.3-15.32,28.49-21.6,2.96-1.82,6.14-3.28,9.21-4.92a3.251,3.251,0,0,1,3.21-.33c8.55,4.92,16.83,10.18,21.67,19.28A6.09,6.09,0,0,1,500.49,753.44Z" fill="#7137c7"/>
  </g>
</svg>
