<svg xmlns="http://www.w3.org/2000/svg" xmlns:xlink="http://www.w3.org/1999/xlink" width="93.04" height="73.91" viewBox="0 0 93.04 73.91">
  <defs>
    <clipPath id="clip-iPhone_XR_XS_Max_11_3">
      <rect width="93.04" height="73.91"/>
    </clipPath>
  </defs>
  <g id="iPhone_XR_XS_Max_11_3" data-name="iPhone XR/XS Max/11 – 3" clip-path="url(#clip-iPhone_XR_XS_Max_11_3)">
    <g id="Groupe_3631" data-name="Groupe 3631" transform="translate(870 -6789)">
      <g id="Groupe_3533" data-name="Groupe 3533" transform="translate(-2491 6456)">
        <g id="high-volume" transform="translate(1621 323.436)">
          <g id="Groupe_3532" data-name="Groupe 3532">
            <path id="Tracé_12308" data-name="Tracé 12308" d="M46.547,75.521a4.225,4.225,0,0,1-6.922,3.252l-23.1-19.14H4.225A4.223,4.223,0,0,1,0,55.409V38.576A4.226,4.226,0,0,1,4.225,34.35h12.3l23.1-19.14a4.227,4.227,0,0,1,6.922,3.254V75.521Zm16.237-6.6c-.1.007-.2.011-.3.011a4.22,4.22,0,0,1-2.987-1.237l-.565-.567a4.222,4.222,0,0,1-.408-5.5,24.568,24.568,0,0,0-.65-30.106,4.222,4.222,0,0,1,.291-5.65l.564-.565a4.133,4.133,0,0,1,3.2-1.231,4.231,4.231,0,0,1,3.061,1.545,33.837,33.837,0,0,1,.881,41.62A4.228,4.228,0,0,1,62.784,68.919Z" fill="#fff"/>
          </g>
        </g>
      </g>
    </g>
  </g>
</svg>
