<svg xmlns="http://www.w3.org/2000/svg" width="88.63" height="96.018" viewBox="0 0 88.63 96.018">
  <g id="off" transform="translate(-18.275)">
    <g id="Groupe_3892" data-name="Groupe 3892" transform="translate(18.275)">
      <path id="Tracé_13092" data-name="Tracé 13092" d="M208.384,51.7a7.49,7.49,0,0,0,7.387-7.385V7.386a7.1,7.1,0,0,0-2.194-5.193,7.244,7.244,0,0,0-10.387,0A7.1,7.1,0,0,0,201,7.386V44.317a7.488,7.488,0,0,0,7.386,7.385Z" transform="translate(-164.068)" fill="#fff"/>
      <path id="Tracé_13093" data-name="Tracé 13093" d="M102.263,90.4A43.473,43.473,0,0,0,89.193,74.821a7.166,7.166,0,0,0-5.482-1.443,6.841,6.841,0,0,0-4.847,2.885,7.024,7.024,0,0,0-1.414,5.453,7.18,7.18,0,0,0,2.856,4.876,29.465,29.465,0,0,1,8.741,10.444,29.426,29.426,0,0,1,.75,24.61A29.26,29.26,0,0,1,74.045,137.4a29.221,29.221,0,0,1-22.908,0,29.253,29.253,0,0,1-15.753-15.752,29.42,29.42,0,0,1,.75-24.61,29.471,29.471,0,0,1,8.742-10.444,7.189,7.189,0,0,0,2.856-4.876,7.022,7.022,0,0,0-1.414-5.453A6.82,6.82,0,0,0,41.5,73.378a7.3,7.3,0,0,0-5.511,1.443,44.052,44.052,0,0,0-14.2,52.567,43.779,43.779,0,0,0,23.6,23.6,43.738,43.738,0,0,0,34.391,0,43.768,43.768,0,0,0,23.6-23.6,43.117,43.117,0,0,0,3.519-17.2A43.651,43.651,0,0,0,102.263,90.4Z" transform="translate(-18.275 -58.49)" fill="#fff"/>
    </g>
  </g>
</svg>
