<svg xmlns="http://www.w3.org/2000/svg" width="349.349" height="551.299" viewBox="0 0 349.349 551.299">
  <g id="Groupe_3516" data-name="Groupe 3516" transform="translate(-299.989 -730.37)">
    <g id="Groupe_3508" data-name="Groupe 3508" transform="translate(299.989 730.37)">
      <g id="Groupe_3117" data-name="Groupe 3117" transform="translate(50.497 47.918)">
        <path id="Tracé_12035" data-name="Tracé 12035" d="M112,232.308s3.861,22.634,8.72,33.363,29.813,58.964,38.61,70.655,27.309,64.11,30.286,78.878c.557,2.757,3.621,6.481,3.621,6.481s2.883-27.8-12.992-64.407-36.157-66.744-46.4-77.647C120.723,265.675,112,232.308,112,232.308Z" transform="translate(-112.003 -232.308)" fill="#57705a"/>
      </g>
      <g id="Groupe_3119" data-name="Groupe 3119" transform="translate(130.231 150.765)">
        <g id="Groupe_3118" data-name="Groupe 3118">
          <path id="Tracé_12036" data-name="Tracé 12036" d="M140.438,560.442c-2.089-12.094-1.555-24.867-.971-37.044,1.839-38.186,10.526-75.965,21.583-112.428A817.68,817.68,0,0,1,204.185,298.51c5.613-11.851,10.272-23.965,17.925-34.688,1.015-1.422-.871-.334-1.342.324-6.792,9.518-12.008,20.351-17.157,30.794-17.728,35.963-31.595,74-43.829,112.128-11.711,36.5-20.158,74.366-22.948,112.642-1,13.807-1.719,28.521.654,42.261.17.978,3.1-.644,2.95-1.529Z" transform="translate(-135.894 -263.125)" fill="#8ea579"/>
        </g>
      </g>
      <g id="Groupe_3120" data-name="Groupe 3120" transform="translate(206.735 99.683)">
        <path id="Tracé_12037" data-name="Tracé 12037" d="M158.818,312.45s28.694-25.824,37.3-28.691,29.265-22.38,51.645-24.1,49.353-9.181,53.367-11.477-33.07,6.958-71.155,11.477c-33.857,4.018-38.216,16.263-47.631,26.972C173.709,296.454,158.818,312.45,158.818,312.45Z" transform="translate(-158.818 -247.819)" fill="#7a9764"/>
      </g>
      <g id="Groupe_3121" data-name="Groupe 3121" transform="translate(211.891 192.602)">
        <path id="Tracé_12038" data-name="Tracé 12038" d="M218.717,275.661s-25.821,12.245-33.283,16.26-18.449,13.319-24.9,18.806c-1.672,1.422,9.281-16.253,28.384-25.017A157.991,157.991,0,0,1,218.717,275.661Z" transform="translate(-160.363 -275.661)" fill="#57705a"/>
      </g>
      <g id="Groupe_3122" data-name="Groupe 3122" transform="translate(7.326 276.226)">
        <path id="Tracé_12039" data-name="Tracé 12039" d="M235.174,373.615s-25.28-25.988-33.657-29.469-27.573-24.433-49.77-27.77-48.562-12.719-52.4-15.3,32.479,9.328,70.144,16.583c33.48,6.451,36.944,18.976,45.561,30.34C222.956,358.43,235.174,373.615,235.174,373.615Z" transform="translate(-99.067 -300.718)" fill="#57705a"/>
      </g>
      <g id="Groupe_3123" data-name="Groupe 3123" transform="translate(52.039 140.215)">
        <path id="Tracé_12040" data-name="Tracé 12040" d="M112.465,259.964s29.289,33.557,37.916,48.5,53.434,104.028,63.873,149.72c10.613,46.432-16.059-94.1-39.494-135.249S121.693,261.823,112.465,259.964Z" transform="translate(-112.465 -259.964)" fill="#a5b77d"/>
      </g>
      <g id="Groupe_3124" data-name="Groupe 3124" transform="translate(21.269 167.84)">
        <path id="Tracé_12041" data-name="Tracé 12041" d="M216.437,376.406s-18.522-33.871-25.691-39.427-20.2-30.81-40.749-39.848-43.526-25.01-46.553-28.5,28.9,17.518,63.339,34.395c30.617,15,30.677,28,36.01,41.223C207.687,356.382,216.437,376.406,216.437,376.406Z" transform="translate(-103.245 -268.241)" fill="#8ea579"/>
      </g>
      <g id="Groupe_3125" data-name="Groupe 3125" transform="translate(215.018 58.203)">
        <path id="Tracé_12042" data-name="Tracé 12042" d="M248.2,235.39s-34.785,34.325-43.716,44.063c-2.123,2.313-5.673,9.428-12.659,13.363-18.469,10.4-19.8,22.964-30.527,37.882C161.3,330.7,160.316,299.41,248.2,235.39Z" transform="translate(-161.3 -235.39)" fill="#57705a"/>
      </g>
      <g id="Groupe_3126" data-name="Groupe 3126" transform="translate(142.058 178.751)">
        <path id="Tracé_12043" data-name="Tracé 12043" d="M253.268,271.511s-8.036,21.513-14.821,31.137-40.342,52.33-51.175,62.161-38.847,57.853-44.544,71.8a3.459,3.459,0,0,1-3.291,2.426s.9-24.59,23.361-57.569,48.031-58.777,60.142-67.565C238.447,302.648,253.268,271.511,253.268,271.511Z" transform="translate(-139.438 -271.511)" fill="#57705a"/>
      </g>
      <g id="Groupe_3127" data-name="Groupe 3127" transform="translate(59.121 214.378)">
        <path id="Tracé_12044" data-name="Tracé 12044" d="M114.587,282.186s34.785,34.325,43.716,44.063c2.123,2.313,5.673,9.428,12.659,13.363,18.469,10.4,21.165,22.073,30.527,37.882C213.029,396.994,202.473,346.206,114.587,282.186Z" transform="translate(-114.587 -282.186)" fill="#7a9650"/>
      </g>
      <g id="Groupe_3128" data-name="Groupe 3128" transform="translate(58.454 135.67)">
        <path id="Tracé_12045" data-name="Tracé 12045" d="M114.387,258.6s29.432,39.01,36.854,49.94c1.765,2.6,4.242,10.152,10.583,15.058,16.763,12.976,17.738,24.913,24.7,41.914C195.121,386.479,192.047,334.7,114.387,258.6Z" transform="translate(-114.387 -258.602)" fill="#57705a"/>
      </g>
      <g id="Groupe_3129" data-name="Groupe 3129" transform="translate(12.528 318.63)">
        <path id="Tracé_12046" data-name="Tracé 12046" d="M100.626,313.424s48.018,9.071,60.863,12.165c3.054.734,9.969,4.659,17.962,4.025,21.132-1.675,29.883,6.5,46.473,14.4C246.384,353.749,209.28,317.5,100.626,313.424Z" transform="translate(-100.626 -313.424)" fill="#57705a"/>
      </g>
      <g id="Groupe_3131" data-name="Groupe 3131" transform="translate(166.194 205.403)">
        <g id="Groupe_3130" data-name="Groupe 3130">
          <path id="Tracé_12047" data-name="Tracé 12047" d="M147.107,338.238c2.022-6.832,11.257-13.5,16.423-17.665,24-19.347,53.7-30.54,82.486-40.335,2.663-.908,1.185-.924-.464-.36-29.619,10.082-60.162,20.915-85.136,40.322-5.587,4.342-11.534,8.487-13.666,15.689-.334,1.125.471,1.929.814.768Z" transform="translate(-146.67 -279.497)" fill="#7a9764"/>
        </g>
      </g>
      <g id="Groupe_3132" data-name="Groupe 3132" transform="translate(5.709 113.614)">
        <path id="Tracé_12048" data-name="Tracé 12048" d="M98.64,252c-1.719-.11,35.523.617,55.664,12.625a177.429,177.429,0,0,1,36.624,29.265c2.029,2.306-23.425-19.51-42.361-24.1S116.428,253.15,98.64,252Z" transform="translate(-98.583 -251.993)" fill="#57705a"/>
      </g>
      <g id="Groupe_3133" data-name="Groupe 3133" transform="translate(136.706 90.594)">
        <path id="Tracé_12049" data-name="Tracé 12049" d="M188.347,245.134c1.332-1.095-28.488,21.229-37.839,42.731A177.273,177.273,0,0,0,137.843,333c-.3,3.057,7.639-29.512,20.341-44.29S174.57,256.444,188.347,245.134Z" transform="translate(-137.834 -245.095)" fill="#7a9764"/>
      </g>
      <g id="Groupe_3134" data-name="Groupe 3134" transform="translate(156.231 297.748)">
        <path id="Tracé_12050" data-name="Tracé 12050" d="M166.492,333.012a182.077,182.077,0,0,0-22.807,28.154,7.213,7.213,0,0,1,1.2,1.158c6.922-8.163,18.048-20.238,28.438-25.7,17.247-9.071,27.106-23.979,44.076-29.432C219.032,306.66,183.092,316.452,166.492,333.012Z" transform="translate(-143.685 -307.167)" fill="#57705a"/>
      </g>
      <g id="Groupe_3135" data-name="Groupe 3135" transform="translate(189.5 142.609)">
        <path id="Tracé_12051" data-name="Tracé 12051" d="M234.755,260.7c1.655-.481-34.548,8.3-51.609,24.383a177.454,177.454,0,0,0-29.415,36.5c-1.485,2.69,18.642-24.122,36.137-32.7S217.638,265.673,234.755,260.7Z" transform="translate(-153.654 -260.681)" fill="#8ea579"/>
      </g>
      <g id="Groupe_3136" data-name="Groupe 3136" transform="translate(147.127 198.105)">
        <path id="Tracé_12052" data-name="Tracé 12052" d="M182.611,277.31s-14.921,44.76-20.661,55.664-18.709,37.281-20.084,53.367-2.87-34.431,9.184-54.515S182.033,285.917,182.611,277.31Z" transform="translate(-140.957 -277.31)" fill="#698945"/>
      </g>
      <g id="Groupe_3137" data-name="Groupe 3137" transform="translate(149.137 235.299)">
        <path id="Tracé_12053" data-name="Tracé 12053" d="M245.48,288.479c2.119-.614-44.27,10.629-66.129,31.244s-35.783,43.329-37.692,46.776,23.889-30.907,46.306-41.907S223.547,294.856,245.48,288.479Z" transform="translate(-141.559 -288.455)" fill="#8ea579"/>
      </g>
      <g id="Groupe_3138" data-name="Groupe 3138" transform="translate(108.906)">
        <path id="Tracé_12054" data-name="Tracé 12054" d="M157.777,217.95s-11.477,43.038-12.625,60.256-2.042,116.931,8.75,162.539c10.967,46.349-27.113-91.53-24.242-138.8S150.318,223.69,157.777,217.95Z" transform="translate(-129.505 -217.95)" fill="#7a9764"/>
      </g>
      <g id="Groupe_3139" data-name="Groupe 3139" transform="translate(0 46.455)">
        <path id="Tracé_12055" data-name="Tracé 12055" d="M96.9,231.9c-.878-.934,20.084,22.38,29.265,26.972s51.071,41.89,60.252,59.108,28.694,61.4,28.694,61.4-30.987-52.219-46.483-67.137S105.506,241.078,96.9,231.9Z" transform="translate(-96.872 -231.87)" fill="#698945"/>
      </g>
      <g id="Groupe_3140" data-name="Groupe 3140" transform="translate(77.864 33.283)">
        <path id="Tracé_12056" data-name="Tracé 12056" d="M123.28,227.923s-4.018,53.367-2.87,60.256S141.068,358.76,160.578,388.6c0,0-21.91-80.33-24.676-91.236S127.3,234.234,123.28,227.923Z" transform="translate(-120.203 -227.923)" fill="#8ea579"/>
      </g>
      <g id="Groupe_3141" data-name="Groupe 3141" transform="translate(170.23 37.545)">
        <path id="Tracé_12057" data-name="Tracé 12057" d="M193.759,229.2s.694,22.954-1.949,34.431-17.561,63.7-23.872,76.9-14.09,68.245-14.09,83.31c0,2.81-2.269,7.068-2.269,7.068s-8.323-26.682,0-65.706,22.243-72.574,30.133-85.289C191.81,263.631,193.759,229.2,193.759,229.2Z" transform="translate(-147.88 -229.2)" fill="#7a9764"/>
      </g>
      <g id="Groupe_3142" data-name="Groupe 3142" transform="translate(132.216 16.643)">
        <path id="Tracé_12058" data-name="Tracé 12058" d="M234.349,222.937S198.2,243.6,185,265.4s-33.28,58.53-36.724,65.993c-6.2,13.433-9.662,82.059-8.123,123.792,1.161,31.491-13.686-85.92,9.271-135.269S163.194,264.253,234.349,222.937Z" transform="translate(-136.489 -222.937)" fill="#57705a"/>
      </g>
      <g id="Groupe_3143" data-name="Groupe 3143" transform="translate(134.802 131.411)">
        <path id="Tracé_12059" data-name="Tracé 12059" d="M178.917,257.326S164,302.086,158.256,312.99s-18.709,37.281-20.084,53.368-2.87-34.431,9.184-54.516S178.34,265.936,178.917,257.326Z" transform="translate(-137.264 -257.326)" fill="#57705a"/>
      </g>
      <g id="Groupe_3144" data-name="Groupe 3144" transform="translate(176.455 155.684)">
        <path id="Tracé_12060" data-name="Tracé 12060" d="M236.82,264.6s-33.353,33.37-43.362,40.559-33.4,24.99-41.82,38.76,12.822-32.082,32.586-44.66S232.458,272.041,236.82,264.6Z" transform="translate(-149.745 -264.599)" fill="#698945"/>
      </g>
      <g id="Groupe_3145" data-name="Groupe 3145" transform="translate(52.643 249.557)">
        <path id="Tracé_12061" data-name="Tracé 12061" d="M112.646,292.727S146,326.1,156.008,333.286s33.4,24.99,41.824,38.76-12.822-32.082-32.586-44.66S117,300.173,112.646,292.727Z" transform="translate(-112.646 -292.727)" fill="#698945"/>
      </g>
      <g id="Groupe_3146" data-name="Groupe 3146" transform="translate(144.665 264.598)">
        <path id="Tracé_12062" data-name="Tracé 12062" d="M225.41,297.234s-33.353,33.37-43.362,40.559-31.381,22.834-39.8,36.607,10.8-29.926,30.56-42.5S221.048,304.68,225.41,297.234Z" transform="translate(-140.219 -297.234)" fill="#698945"/>
      </g>
      <g id="Groupe_3147" data-name="Groupe 3147" transform="translate(134.804 191.51)">
        <path id="Tracé_12063" data-name="Tracé 12063" d="M137.266,336.16s7.028-37.872,43.973-60.827c0,0-19.871,9.468-26.755,19.08S137.139,328.084,137.266,336.16Z" transform="translate(-137.265 -275.334)" fill="#57705a"/>
      </g>
      <g id="Groupe_3148" data-name="Groupe 3148" transform="translate(212.863 217.491)">
        <path id="Tracé_12064" data-name="Tracé 12064" d="M160.654,293.182s34.979-16.139,75.05.758c0,0-19.2-10.75-31.027-10.82S167.175,288.412,160.654,293.182Z" transform="translate(-160.654 -283.119)" fill="#698945"/>
      </g>
      <g id="Groupe_3149" data-name="Groupe 3149" transform="translate(165.639 258.01)">
        <path id="Tracé_12065" data-name="Tracé 12065" d="M218.551,306.08s-19.2-10.75-31.027-10.82c-10.352-.06-31.318,4.042-40.756,8.263l-.264.721A99.12,99.12,0,0,1,218.551,306.08Z" transform="translate(-146.504 -295.26)" fill="#415644"/>
      </g>
      <g id="Groupe_3150" data-name="Groupe 3150" transform="translate(71.566 272.421)">
        <path id="Tracé_12066" data-name="Tracé 12066" d="M118.316,299.695s38.456,2.246,65.842,36.03c0,0-11.874-18.532-22.27-24.162S126.316,298.56,118.316,299.695Z" transform="translate(-118.316 -299.578)" fill="#415644"/>
      </g>
      <g id="Groupe_3151" data-name="Groupe 3151" transform="translate(193.212 118.776)">
        <path id="Tracé_12067" data-name="Tracé 12067" d="M154.766,327.365s22.5-31.268,13.536-73.825c0,0,6.9,20.9,4.719,32.519S160.683,321.875,154.766,327.365Z" transform="translate(-154.766 -253.54)" fill="#415644"/>
      </g>
      <g id="Groupe_3152" data-name="Groupe 3152" transform="translate(107.686 172.517)">
        <path id="Tracé_12068" data-name="Tracé 12068" d="M192.211,524.129c-.364-2.022-36.677-202.827-63.072-253.214l2.43-1.272c26.585,50.758,62.979,251.973,63.343,254Z" transform="translate(-129.139 -269.643)" fill="#7a9764"/>
      </g>
      <g id="Groupe_3153" data-name="Groupe 3153" transform="translate(131.875 187.389)">
        <path id="Tracé_12069" data-name="Tracé 12069" d="M164.824,530.45c-17.067-71.9-33.607-158.581-26.916-256.351l2.737.187c-6.668,97.4,9.828,183.831,26.846,255.53Z" transform="translate(-136.387 -274.099)" fill="#57705a"/>
      </g>
    </g>
    <g id="Groupe_3509" data-name="Groupe 3509" transform="translate(366.335 1085.965)">
      <path id="Tracé_12078" data-name="Tracé 12078" d="M209.346,324.506l-21.229,192.87c0,1.155-16.857,2.139-40.555,2.524,0,0,25.941-196.632,25.941-195.394Z" transform="translate(-44.738 -324.5)" fill="#f2efeb"/>
      <path id="Tracé_12079" data-name="Tracé 12079" d="M245.52,324.5l-25.941,195.52c-6.885.113-14.341.174-22.133.174-34.622,0-62.689-1.209-62.689-2.7l-18-192.995Z" transform="translate(-116.752 -324.493)" fill="#f9f6f2"/>
    </g>
  </g>
</svg>
