<svg xmlns="http://www.w3.org/2000/svg" xmlns:xlink="http://www.w3.org/1999/xlink" width="1012" height="681" viewBox="0 0 1012 681">
  <defs>
    <clipPath id="clip-post-contain-drawer">
      <rect width="1012" height="681"/>
    </clipPath>
  </defs>
  <g id="post-contain-drawer" clip-path="url(#clip-post-contain-drawer)">
    <text id="Who_said_you_could_open_" data-name="Who said you could open?" transform="translate(722 85)" fill="#fff" font-size="30" font-family="SourceCodePro-Medium, Source Code Pro" font-weight="500"><tspan x="-432" y="0">Who said you could open?</tspan></text>
    <text id="_You_can_use_nothing_" data-name="(You can use nothing)" transform="translate(632 118)" fill="#fff" font-size="20" font-family="SourceCodePro-Light, Source Code Pro" font-weight="300"><tspan x="-252" y="0">(You can use nothing)</tspan></text>
    <g id="Groupe_4494" data-name="Groupe 4494" transform="translate(122.986 77.807)">
      <g id="Groupe_4456" data-name="Groupe 4456" transform="translate(10 115.829)">
        <g id="Groupe_4201" data-name="Groupe 4201" transform="translate(275.967 0)">
          <g id="Groupe_4200" data-name="Groupe 4200" transform="translate(0)">
            <rect id="Rectangle_462" data-name="Rectangle 462" width="316.954" height="222.99" transform="translate(0 316.732) rotate(-87.92)" fill="#fff"/>
          </g>
        </g>
        <g id="Groupe_4203" data-name="Groupe 4203" transform="translate(235.955 6.993)">
          <g id="Groupe_4202" data-name="Groupe 4202" transform="translate(0 0)">
            <rect id="Rectangle_463" data-name="Rectangle 463" width="222.99" height="316.954" transform="matrix(0.984, -0.176, 0.176, 0.984, 0, 39.157)" fill="#e2e2e2"/>
          </g>
        </g>
        <g id="Groupe_4205" data-name="Groupe 4205" transform="translate(256.472 48.816)">
          <g id="Groupe_4204" data-name="Groupe 4204">
            <rect id="Rectangle_464" data-name="Rectangle 464" width="222.99" height="316.954" fill="#c6cacc"/>
          </g>
        </g>
        <g id="Groupe_4283" data-name="Groupe 4283" transform="translate(225.795 34.215)">
          <g id="Groupe_4207" data-name="Groupe 4207" transform="translate(0 0)">
            <g id="Groupe_4206" data-name="Groupe 4206" transform="translate(0)">
              <rect id="Rectangle_465" data-name="Rectangle 465" width="222.99" height="316.954" transform="matrix(0.99, -0.138, 0.138, 0.99, 0, 30.839)" fill="#fff"/>
            </g>
          </g>
          <g id="Groupe_4209" data-name="Groupe 4209" transform="translate(151.302 152.343)">
            <g id="Groupe_4208" data-name="Groupe 4208">
              <path id="Tracé_13330" data-name="Tracé 13330" d="M155.6,156.191a30.008,30.008,0,1,1,33.871,25.567A30.023,30.023,0,0,1,155.6,156.191Z" transform="translate(-155.311 -122.031)" fill="#d3d7d9"/>
            </g>
          </g>
          <g id="Groupe_4211" data-name="Groupe 4211" transform="translate(69.672 249.124)">
            <g id="Groupe_4210" data-name="Groupe 4210">
              <path id="Tracé_13331" data-name="Tracé 13331" d="M121.981,196.051a30.008,30.008,0,1,1,33.871,25.567A30.023,30.023,0,0,1,121.981,196.051Z" transform="translate(-121.691 -161.891)" fill="#737373"/>
            </g>
          </g>
          <g id="Groupe_4213" data-name="Groupe 4213" transform="translate(57.969 165.358)">
            <g id="Groupe_4212" data-name="Groupe 4212">
              <path id="Tracé_13332" data-name="Tracé 13332" d="M176.6,153.247a30.008,30.008,0,1,1-33.871-25.567A30.023,30.023,0,0,1,176.6,153.247Z" transform="translate(-116.871 -127.391)" fill="#d3d7d9"/>
            </g>
          </g>
          <g id="Groupe_4221" data-name="Groupe 4221" transform="translate(58.233 165.211)">
            <g id="Groupe_4220" data-name="Groupe 4220">
              <g id="Groupe_4219" data-name="Groupe 4219">
                <g id="Groupe_4218" data-name="Groupe 4218">
                  <g id="Groupe_4217" data-name="Groupe 4217">
                    <g id="Groupe_4216" data-name="Groupe 4216">
                      <g id="Groupe_4215" data-name="Groupe 4215">
                        <g id="Groupe_4214" data-name="Groupe 4214">
                          <path id="Tracé_13333" data-name="Tracé 13333" d="M146.724,157.486l-4.2-30.156a29.85,29.85,0,1,0,33.92,26Z" transform="translate(-116.979 -127.33)" fill="#d0c3f2"/>
                        </g>
                      </g>
                    </g>
                  </g>
                </g>
              </g>
            </g>
          </g>
          <g id="Groupe_4229" data-name="Groupe 4229" transform="translate(151.615 152.682)">
            <g id="Groupe_4228" data-name="Groupe 4228">
              <g id="Groupe_4227" data-name="Groupe 4227">
                <g id="Groupe_4226" data-name="Groupe 4226">
                  <g id="Groupe_4225" data-name="Groupe 4225">
                    <g id="Groupe_4224" data-name="Groupe 4224">
                      <g id="Groupe_4223" data-name="Groupe 4223">
                        <g id="Groupe_4222" data-name="Groupe 4222">
                          <path id="Tracé_13334" data-name="Tracé 13334" d="M189.263,181.487l-8.28-59.317a29.947,29.947,0,0,0,8.28,59.317Z" transform="translate(-155.439 -122.17)" fill="#d0c3f2"/>
                        </g>
                      </g>
                    </g>
                  </g>
                </g>
              </g>
            </g>
          </g>
          <g id="Groupe_4237" data-name="Groupe 4237" transform="translate(69.661 249.39)">
            <g id="Groupe_4236" data-name="Groupe 4236">
              <g id="Groupe_4235" data-name="Groupe 4235">
                <g id="Groupe_4234" data-name="Groupe 4234">
                  <g id="Groupe_4233" data-name="Groupe 4233">
                    <g id="Groupe_4232" data-name="Groupe 4232">
                      <g id="Groupe_4231" data-name="Groupe 4231">
                        <g id="Groupe_4230" data-name="Groupe 4230">
                          <path id="Tracé_13335" data-name="Tracé 13335" d="M146.923,162a29.916,29.916,0,0,0-24.984,33.385l29.088-4.055Z" transform="translate(-121.686 -162)" fill="#00ccb0"/>
                        </g>
                      </g>
                    </g>
                  </g>
                </g>
              </g>
            </g>
          </g>
          <g id="Groupe_4239" data-name="Groupe 4239" transform="translate(158.9 244.177)">
            <g id="Groupe_4238" data-name="Groupe 4238" transform="translate(0 0)">
              <rect id="Rectangle_466" data-name="Rectangle 466" width="49.799" height="8.984" transform="matrix(0.99, -0.138, 0.138, 0.99, 0, 6.887)" fill="#eaecf0"/>
            </g>
          </g>
          <g id="Groupe_4241" data-name="Groupe 4241" transform="translate(160.982 257.603)">
            <g id="Groupe_4240" data-name="Groupe 4240" transform="translate(0 0)">
              <rect id="Rectangle_467" data-name="Rectangle 467" width="61.72" height="8.984" transform="matrix(0.99, -0.138, 0.138, 0.99, 0, 8.536)" fill="#eaecf0"/>
            </g>
          </g>
          <g id="Groupe_4243" data-name="Groupe 4243" transform="translate(46.279 107.718)">
            <g id="Groupe_4242" data-name="Groupe 4242" transform="translate(0 0)">
              <rect id="Rectangle_468" data-name="Rectangle 468" width="120.988" height="8.984" transform="matrix(0.99, -0.138, 0.138, 0.99, 0, 16.733)" fill="#eaecf0"/>
            </g>
          </g>
          <g id="Groupe_4245" data-name="Groupe 4245" transform="translate(48.389 117.965)">
            <g id="Groupe_4244" data-name="Groupe 4244" transform="translate(0 0)">
              <rect id="Rectangle_469" data-name="Rectangle 469" width="155.733" height="8.984" transform="matrix(0.99, -0.138, 0.138, 0.99, 0, 21.538)" fill="#eaecf0"/>
            </g>
          </g>
          <g id="Groupe_4247" data-name="Groupe 4247" transform="translate(163.069 272.634)">
            <g id="Groupe_4246" data-name="Groupe 4246" transform="translate(0 0)">
              <rect id="Rectangle_470" data-name="Rectangle 470" width="61.72" height="8.984" transform="matrix(0.99, -0.138, 0.138, 0.99, 0, 8.536)" fill="#eaecf0"/>
            </g>
          </g>
          <g id="Groupe_4254" data-name="Groupe 4254" transform="translate(39.389 63.569)">
            <g id="Groupe_4253" data-name="Groupe 4253" transform="translate(0 0)">
              <g id="Groupe_4252" data-name="Groupe 4252">
                <g id="Groupe_4251" data-name="Groupe 4251">
                  <g id="Groupe_4250" data-name="Groupe 4250">
                    <g id="Groupe_4249" data-name="Groupe 4249">
                      <g id="Groupe_4248" data-name="Groupe 4248">
                        <rect id="Rectangle_471" data-name="Rectangle 471" width="19.06" height="41.592" transform="translate(0 2.642) rotate(-7.966)" fill="#00ccb0"/>
                      </g>
                    </g>
                  </g>
                </g>
              </g>
            </g>
          </g>
          <g id="Groupe_4261" data-name="Groupe 4261" transform="translate(74.936 72.895)">
            <g id="Groupe_4260" data-name="Groupe 4260" transform="translate(0 0)">
              <g id="Groupe_4259" data-name="Groupe 4259" transform="translate(0)">
                <g id="Groupe_4258" data-name="Groupe 4258">
                  <g id="Groupe_4257" data-name="Groupe 4257">
                    <g id="Groupe_4256" data-name="Groupe 4256">
                      <g id="Groupe_4255" data-name="Groupe 4255">
                        <rect id="Rectangle_472" data-name="Rectangle 472" width="19.06" height="27.461" transform="matrix(0.99, -0.138, 0.138, 0.99, 0, 2.636)" fill="#d0c3f2"/>
                      </g>
                    </g>
                  </g>
                </g>
              </g>
            </g>
          </g>
          <g id="Groupe_4268" data-name="Groupe 4268" transform="translate(104.797 41.692)">
            <g id="Groupe_4267" data-name="Groupe 4267" transform="translate(0 0)">
              <g id="Groupe_4266" data-name="Groupe 4266" transform="translate(0)">
                <g id="Groupe_4265" data-name="Groupe 4265">
                  <g id="Groupe_4264" data-name="Groupe 4264">
                    <g id="Groupe_4263" data-name="Groupe 4263">
                      <g id="Groupe_4262" data-name="Groupe 4262">
                        <rect id="Rectangle_473" data-name="Rectangle 473" width="19.06" height="54.193" transform="translate(0 2.634) rotate(-7.944)" fill="#737373"/>
                      </g>
                    </g>
                  </g>
                </g>
              </g>
            </g>
          </g>
          <g id="Groupe_4275" data-name="Groupe 4275" transform="translate(140.128 49.518)">
            <g id="Groupe_4274" data-name="Groupe 4274" transform="translate(0 0)">
              <g id="Groupe_4273" data-name="Groupe 4273" transform="translate(0)">
                <g id="Groupe_4272" data-name="Groupe 4272">
                  <g id="Groupe_4271" data-name="Groupe 4271">
                    <g id="Groupe_4270" data-name="Groupe 4270">
                      <g id="Groupe_4269" data-name="Groupe 4269">
                        <rect id="Rectangle_474" data-name="Rectangle 474" width="19.036" height="41.592" transform="matrix(0.99, -0.139, 0.139, 0.99, 0, 2.636)" fill="#00ccb0"/>
                      </g>
                    </g>
                  </g>
                </g>
              </g>
            </g>
          </g>
          <g id="Groupe_4282" data-name="Groupe 4282" transform="translate(175.688 59.191)">
            <g id="Groupe_4281" data-name="Groupe 4281" transform="translate(0 0)">
              <g id="Groupe_4280" data-name="Groupe 4280" transform="translate(0)">
                <g id="Groupe_4279" data-name="Groupe 4279">
                  <g id="Groupe_4278" data-name="Groupe 4278">
                    <g id="Groupe_4277" data-name="Groupe 4277">
                      <g id="Groupe_4276" data-name="Groupe 4276">
                        <rect id="Rectangle_475" data-name="Rectangle 475" width="19.06" height="27.097" transform="translate(0 2.634) rotate(-7.944)" fill="#d0c3f2"/>
                      </g>
                    </g>
                  </g>
                </g>
              </g>
            </g>
          </g>
        </g>
        <g id="Groupe_4285" data-name="Groupe 4285" transform="translate(292.382 29.586)">
          <g id="Groupe_4284" data-name="Groupe 4284">
            <path id="Tracé_13336" data-name="Tracé 13336" d="M123.309,60.245a9.731,9.731,0,0,1,13.791,0,9.635,9.635,0,0,1,2.841,6.9v34.6A7.589,7.589,0,0,1,127,107.106a7.492,7.492,0,0,1-2.21-5.342V67.116a5.415,5.415,0,1,1,10.829,0v8.6a1.141,1.141,0,1,1-2.282,0v-8.6a3.046,3.046,0,0,0-.923-2.209,3.146,3.146,0,0,0-2.209-.923,3.114,3.114,0,0,0-3.108,3.108v34.624a5.264,5.264,0,0,0,5.269,5.245,5.3,5.3,0,0,0,3.715-1.53,5.236,5.236,0,0,0,1.53-3.715V67.141a7.454,7.454,0,0,0-14.908,0v8.571a1.141,1.141,0,0,1-2.282,0V67.141A9.826,9.826,0,0,1,123.309,60.245Z" transform="translate(-120.42 -57.38)" fill="#737373"/>
          </g>
        </g>
        <g id="Groupe_4287" data-name="Groupe 4287" transform="translate(481.768 74.577)">
          <g id="Groupe_4286" data-name="Groupe 4286">
            <path id="Tracé_13337" data-name="Tracé 13337" d="M228.916,75.91a9.778,9.778,0,0,1,6.9,2.841,9.677,9.677,0,0,1,2.841,6.9,9.778,9.778,0,0,1-2.841,6.9l-24.474,24.474a7.606,7.606,0,0,1-10.708,0,7.591,7.591,0,0,1,0-10.708l24.5-24.5a5.437,5.437,0,0,1,7.672,0,5.452,5.452,0,0,1,0,7.673l-6.094,6.094a1.15,1.15,0,0,1-1.627,0,1.129,1.129,0,0,1,0-1.627l6.094-6.094a3.1,3.1,0,0,0,.923-2.21,3.046,3.046,0,0,0-.923-2.21,3.136,3.136,0,0,0-4.419,0l-24.5,24.5a5.262,5.262,0,1,0,7.43,7.454l24.474-24.474a7.4,7.4,0,0,0,2.185-5.269,7.3,7.3,0,0,0-2.185-5.245,7.444,7.444,0,0,0-10.538,0l-6.07,6.07a1.173,1.173,0,0,1-1.627,0,1.15,1.15,0,0,1,0-1.627l6.07-6.07A9.8,9.8,0,0,1,228.916,75.91Z" transform="translate(-198.42 -75.91)" fill="#d0c3f2"/>
          </g>
        </g>
        <g id="Groupe_4289" data-name="Groupe 4289" transform="translate(519.668 110.075)">
          <g id="Groupe_4288" data-name="Groupe 4288">
            <path id="Tracé_13338" data-name="Tracé 13338" d="M216.848,93.4a9.761,9.761,0,0,1,16.656,6.9v34.6a7.589,7.589,0,0,1-12.941,5.366,7.492,7.492,0,0,1-2.21-5.342V100.266a5.414,5.414,0,1,1,10.829,0v8.6a1.141,1.141,0,0,1-2.282,0v-8.619a3.108,3.108,0,1,0-6.216-.024v34.624a5.316,5.316,0,0,0,1.554,3.739,5.194,5.194,0,0,0,3.715,1.53,5.3,5.3,0,0,0,3.715-1.53,5.236,5.236,0,0,0,1.53-3.715v-34.6a7.461,7.461,0,0,0-7.454-7.454A7.3,7.3,0,0,0,218.5,95a7.4,7.4,0,0,0-2.185,5.269v8.571a1.141,1.141,0,1,1-2.282,0v-8.571A9.364,9.364,0,0,1,216.848,93.4Z" transform="translate(-214.029 -90.53)" fill="#737373"/>
          </g>
        </g>
        <g id="Groupe_4305" data-name="Groupe 4305" transform="translate(0 66.2)">
          <g id="Groupe_4304" data-name="Groupe 4304">
            <path id="Tracé_13346" data-name="Tracé 13346" d="M2.865,89.068a9.7,9.7,0,0,1-.024-13.743,9.7,9.7,0,0,1,6.9-2.865h34.6A7.589,7.589,0,0,1,49.7,85.4a7.492,7.492,0,0,1-5.342,2.21H9.712a5.439,5.439,0,0,1,0-10.878h8.6a1.14,1.14,0,0,1,1.141,1.141,1.125,1.125,0,0,1-1.141,1.141H9.688a3.109,3.109,0,0,0-3.132,3.108,3.114,3.114,0,0,0,3.108,3.108H44.287a5.273,5.273,0,0,0,3.739-1.554,5.194,5.194,0,0,0,1.53-3.715,5.354,5.354,0,0,0-1.53-3.739,5.236,5.236,0,0,0-3.715-1.53H9.736a7.442,7.442,0,1,0,0,14.884h8.571a1.145,1.145,0,0,1,1.141,1.165,1.177,1.177,0,0,1-1.141,1.165H9.736A9.482,9.482,0,0,1,2.865,89.068Z" transform="translate(0 -72.46)" fill="#737373"/>
          </g>
        </g>
        <g id="Groupe_4307" data-name="Groupe 4307" transform="translate(375.542 386.408)">
          <g id="Groupe_4306" data-name="Groupe 4306">
            <path id="Tracé_13347" data-name="Tracé 13347" d="M157.511,220.972a9.748,9.748,0,0,1,6.9-16.632h34.6a7.589,7.589,0,0,1,5.366,12.941,7.492,7.492,0,0,1-5.342,2.21H164.382a5.415,5.415,0,1,1,0-10.829h8.6a1.14,1.14,0,0,1,1.141,1.141,1.125,1.125,0,0,1-1.141,1.141h-8.62a3.108,3.108,0,1,0-.024,6.216h34.624a5.273,5.273,0,0,0,3.739-1.554,5.194,5.194,0,0,0,1.53-3.715,5.354,5.354,0,0,0-1.53-3.739,5.236,5.236,0,0,0-3.715-1.53h-34.6a7.442,7.442,0,1,0,0,14.884h8.571a1.125,1.125,0,0,1,1.141,1.141,1.177,1.177,0,0,1-1.141,1.165h-8.571A9.562,9.562,0,0,1,157.511,220.972Z" transform="translate(-154.67 -204.34)" fill="#737373"/>
          </g>
        </g>
        <g id="Groupe_4319" data-name="Groupe 4319" transform="translate(629.344 173.494)">
          <g id="Groupe_4318" data-name="Groupe 4318">
            <path id="Tracé_13353" data-name="Tracé 13353" d="M360.74,248.467a8.16,8.16,0,0,1-8.158,8.158H267.358a8.16,8.16,0,0,1-8.158-8.158V124.808a8.16,8.16,0,0,1,8.158-8.158h85.224a8.16,8.16,0,0,1,8.158,8.158Z" transform="translate(-259.2 -116.65)" fill="#c6cacc"/>
          </g>
        </g>
        <g id="Groupe_4321" data-name="Groupe 4321" transform="translate(636.458 183.474)">
          <g id="Groupe_4320" data-name="Groupe 4320">
            <rect id="Rectangle_476" data-name="Rectangle 476" width="87.287" height="26.028" fill="#4e5352"/>
          </g>
        </g>
        <g id="Groupe_4323" data-name="Groupe 4323" transform="translate(636.458 183.474)" opacity="0.15">
          <g id="Groupe_4322" data-name="Groupe 4322">
            <path id="Tracé_13354" data-name="Tracé 13354" d="M262.13,146.788V120.76h87.287" transform="translate(-262.13 -120.76)" fill="#fff"/>
          </g>
        </g>
        <g id="Groupe_4325" data-name="Groupe 4325" transform="translate(636.458 216.3)">
          <g id="Groupe_4324" data-name="Groupe 4324">
            <rect id="Rectangle_477" data-name="Rectangle 477" width="18.137" height="18.137" fill="#99ffef"/>
          </g>
        </g>
        <g id="Groupe_4327" data-name="Groupe 4327" transform="translate(659.499 216.3)">
          <g id="Groupe_4326" data-name="Groupe 4326">
            <rect id="Rectangle_478" data-name="Rectangle 478" width="18.162" height="18.137" fill="#fff"/>
          </g>
        </g>
        <g id="Groupe_4329" data-name="Groupe 4329" transform="translate(682.566 216.3)">
          <g id="Groupe_4328" data-name="Groupe 4328">
            <rect id="Rectangle_479" data-name="Rectangle 479" width="18.137" height="18.137" fill="#fff"/>
          </g>
        </g>
        <g id="Groupe_4331" data-name="Groupe 4331" transform="translate(705.608 216.3)">
          <g id="Groupe_4330" data-name="Groupe 4330">
            <rect id="Rectangle_480" data-name="Rectangle 480" width="18.162" height="18.137" fill="#fff"/>
          </g>
        </g>
        <g id="Groupe_4333" data-name="Groupe 4333" transform="translate(636.458 239.1)">
          <g id="Groupe_4332" data-name="Groupe 4332">
            <rect id="Rectangle_481" data-name="Rectangle 481" width="18.137" height="18.137" fill="#d0c3f2"/>
          </g>
        </g>
        <g id="Groupe_4335" data-name="Groupe 4335" transform="translate(659.499 239.1)">
          <g id="Groupe_4334" data-name="Groupe 4334">
            <rect id="Rectangle_482" data-name="Rectangle 482" width="18.162" height="18.137" fill="#fff"/>
          </g>
        </g>
        <g id="Groupe_4337" data-name="Groupe 4337" transform="translate(682.566 239.1)">
          <g id="Groupe_4336" data-name="Groupe 4336">
            <rect id="Rectangle_483" data-name="Rectangle 483" width="18.137" height="18.137" fill="#fff"/>
          </g>
        </g>
        <g id="Groupe_4339" data-name="Groupe 4339" transform="translate(705.608 239.1)">
          <g id="Groupe_4338" data-name="Groupe 4338">
            <rect id="Rectangle_484" data-name="Rectangle 484" width="18.162" height="18.137" fill="#fff"/>
          </g>
        </g>
        <g id="Groupe_4341" data-name="Groupe 4341" transform="translate(636.458 261.899)">
          <g id="Groupe_4340" data-name="Groupe 4340">
            <rect id="Rectangle_485" data-name="Rectangle 485" width="18.137" height="18.162" fill="#00ccb0"/>
          </g>
        </g>
        <g id="Groupe_4343" data-name="Groupe 4343" transform="translate(659.499 261.899)">
          <g id="Groupe_4342" data-name="Groupe 4342">
            <rect id="Rectangle_486" data-name="Rectangle 486" width="18.162" height="18.162" fill="#fff"/>
          </g>
        </g>
        <g id="Groupe_4345" data-name="Groupe 4345" transform="translate(682.566 261.899)">
          <g id="Groupe_4344" data-name="Groupe 4344">
            <rect id="Rectangle_487" data-name="Rectangle 487" width="18.137" height="18.162" fill="#fff"/>
          </g>
        </g>
        <g id="Groupe_4347" data-name="Groupe 4347" transform="translate(705.608 261.899)">
          <g id="Groupe_4346" data-name="Groupe 4346">
            <rect id="Rectangle_488" data-name="Rectangle 488" width="18.162" height="18.162" fill="#fff"/>
          </g>
        </g>
        <g id="Groupe_4349" data-name="Groupe 4349" transform="translate(637.065 270.3)">
          <g id="Groupe_4348" data-name="Groupe 4348">
            <rect id="Rectangle_489" data-name="Rectangle 489" width="17.555" height="32.56" fill="#00ccb0"/>
          </g>
        </g>
        <g id="Groupe_4351" data-name="Groupe 4351" transform="translate(659.499 284.722)">
          <g id="Groupe_4350" data-name="Groupe 4350">
            <rect id="Rectangle_490" data-name="Rectangle 490" width="18.162" height="18.162" fill="#fff"/>
          </g>
        </g>
        <g id="Groupe_4353" data-name="Groupe 4353" transform="translate(682.566 284.722)">
          <g id="Groupe_4352" data-name="Groupe 4352">
            <rect id="Rectangle_491" data-name="Rectangle 491" width="18.137" height="18.162" fill="#fff"/>
          </g>
        </g>
        <g id="Groupe_4355" data-name="Groupe 4355" transform="translate(705.608 284.722)">
          <g id="Groupe_4354" data-name="Groupe 4354">
            <rect id="Rectangle_492" data-name="Rectangle 492" width="18.162" height="18.162" fill="#fff"/>
          </g>
        </g>
        <g id="Groupe_4358" data-name="Groupe 4358" transform="translate(578.646 185.659)">
          <g id="Groupe_4357" data-name="Groupe 4357">
            <g id="Groupe_4356" data-name="Groupe 4356">
              <path id="Tracé_13355" data-name="Tracé 13355" d="M243.079,195.836a2.383,2.383,0,0,1-2.38,2.379h0a2.383,2.383,0,0,1-2.379-2.379v-71.8a2.383,2.383,0,0,1,2.379-2.379h0a2.383,2.383,0,0,1,2.38,2.379Z" transform="translate(-238.32 -121.66)" fill="#00bda3"/>
            </g>
          </g>
        </g>
        <g id="Groupe_4361" data-name="Groupe 4361" transform="translate(566.506 374.292)">
          <g id="Groupe_4360" data-name="Groupe 4360">
            <g id="Groupe_4359" data-name="Groupe 4359">
              <path id="Tracé_13356" data-name="Tracé 13356" d="M246.431,205.614a2.788,2.788,0,0,1-2.768,2.792h-7.575a2.788,2.788,0,0,1-2.768-2.792v-3.472a2.787,2.787,0,0,1,2.768-2.792h7.575a2.772,2.772,0,0,1,2.768,2.792Z" transform="translate(-233.32 -199.35)" fill="#00ccb0"/>
            </g>
          </g>
        </g>
        <g id="Groupe_4364" data-name="Groupe 4364" transform="translate(566.531 213.265)">
          <g id="Groupe_4363" data-name="Groupe 4363">
            <g id="Groupe_4362" data-name="Groupe 4362">
              <rect id="Rectangle_493" data-name="Rectangle 493" width="13.087" height="164.863" fill="#fff"/>
            </g>
          </g>
        </g>
        <g id="Groupe_4367" data-name="Groupe 4367" transform="translate(571.508 213.265)">
          <g id="Groupe_4366" data-name="Groupe 4366">
            <g id="Groupe_4365" data-name="Groupe 4365">
              <rect id="Rectangle_494" data-name="Rectangle 494" width="3.132" height="164.863" fill="#00ccb0"/>
            </g>
          </g>
        </g>
        <g id="Groupe_4370" data-name="Groupe 4370" transform="translate(564.297 167.959)">
          <g id="Groupe_4369" data-name="Groupe 4369">
            <g id="Groupe_4368" data-name="Groupe 4368">
              <path id="Tracé_13357" data-name="Tracé 13357" d="M249.333,178.421V117.162a2.793,2.793,0,0,0-2.792-2.792H236.076a2.793,2.793,0,0,0-2.792,2.792v61.259a1.876,1.876,0,0,0-.874,1.6,1.907,1.907,0,0,0,1.918,1.918h13.961a1.907,1.907,0,0,0,1.918-1.918A2,2,0,0,0,249.333,178.421Z" transform="translate(-232.41 -114.37)" fill="#00ccb0"/>
            </g>
          </g>
        </g>
        <g id="Groupe_4373" data-name="Groupe 4373" transform="translate(25.956 373.806)">
          <g id="Groupe_4372" data-name="Groupe 4372">
            <g id="Groupe_4371" data-name="Groupe 4371">
              <path id="Tracé_13358" data-name="Tracé 13358" d="M84.866,199.15a2.383,2.383,0,0,1,2.379,2.379h0a2.383,2.383,0,0,1-2.379,2.379h-71.8a2.383,2.383,0,0,1-2.379-2.379h0a2.383,2.383,0,0,1,2.379-2.379Z" transform="translate(-10.69 -199.15)" fill="#00bda3"/>
            </g>
          </g>
        </g>
        <g id="Groupe_4376" data-name="Groupe 4376" transform="translate(214.589 377.57)">
          <g id="Groupe_4375" data-name="Groupe 4375">
            <g id="Groupe_4374" data-name="Groupe 4374">
              <path id="Tracé_13359" data-name="Tracé 13359" d="M94.644,200.7a2.787,2.787,0,0,1,2.792,2.768v7.575a2.788,2.788,0,0,1-2.792,2.768H91.172a2.788,2.788,0,0,1-2.792-2.768v-7.575a2.772,2.772,0,0,1,2.792-2.768Z" transform="translate(-88.38 -200.7)" fill="#00ccb0"/>
            </g>
          </g>
        </g>
        <g id="Groupe_4379" data-name="Groupe 4379" transform="translate(53.562 377.57)">
          <g id="Groupe_4378" data-name="Groupe 4378">
            <g id="Groupe_4377" data-name="Groupe 4377">
              <rect id="Rectangle_495" data-name="Rectangle 495" width="164.863" height="13.087" fill="#fff"/>
            </g>
          </g>
        </g>
        <g id="Groupe_4382" data-name="Groupe 4382" transform="translate(53.562 382.571)">
          <g id="Groupe_4381" data-name="Groupe 4381">
            <g id="Groupe_4380" data-name="Groupe 4380">
              <rect id="Rectangle_496" data-name="Rectangle 496" width="164.863" height="3.132" fill="#00ccb0"/>
            </g>
          </g>
        </g>
        <g id="Groupe_4385" data-name="Groupe 4385" transform="translate(8.255 375.117)">
          <g id="Groupe_4384" data-name="Groupe 4384">
            <g id="Groupe_4383" data-name="Groupe 4383">
              <path id="Tracé_13360" data-name="Tracé 13360" d="M67.476,200.564H6.192A2.793,2.793,0,0,0,3.4,203.356v10.465a2.808,2.808,0,0,0,2.792,2.792H67.451a1.876,1.876,0,0,0,1.6.874,1.907,1.907,0,0,0,1.918-1.918V201.608a1.907,1.907,0,0,0-1.918-1.918A1.865,1.865,0,0,0,67.476,200.564Z" transform="translate(-3.4 -199.69)" fill="#00ccb0"/>
            </g>
          </g>
        </g>
        <g id="Groupe_4388" data-name="Groupe 4388" transform="translate(532.587 205.593)">
          <g id="Groupe_4387" data-name="Groupe 4387">
            <g id="Groupe_4386" data-name="Groupe 4386">
              <path id="Tracé_13361" data-name="Tracé 13361" d="M219.35,204.022a2.383,2.383,0,0,0,2.379,2.379h0a2.383,2.383,0,0,0,2.379-2.379V132.249a2.383,2.383,0,0,0-2.379-2.379h0a2.383,2.383,0,0,0-2.379,2.379Z" transform="translate(-219.35 -129.87)" fill="#737373"/>
            </g>
          </g>
        </g>
        <g id="Groupe_4391" data-name="Groupe 4391" transform="translate(536.374 394.226)">
          <g id="Groupe_4390" data-name="Groupe 4390">
            <g id="Groupe_4389" data-name="Groupe 4389">
              <path id="Tracé_13362" data-name="Tracé 13362" d="M220.91,213.824a2.788,2.788,0,0,0,2.768,2.792h7.575a2.788,2.788,0,0,0,2.768-2.792v-3.472a2.787,2.787,0,0,0-2.768-2.792h-7.575a2.788,2.788,0,0,0-2.768,2.792Z" transform="translate(-220.91 -207.56)" fill="#737373"/>
            </g>
          </g>
        </g>
        <g id="Groupe_4394" data-name="Groupe 4394" transform="translate(536.374 233.175)">
          <g id="Groupe_4393" data-name="Groupe 4393">
            <g id="Groupe_4392" data-name="Groupe 4392">
              <rect id="Rectangle_497" data-name="Rectangle 497" width="13.087" height="164.863" fill="#fff"/>
            </g>
          </g>
        </g>
        <g id="Groupe_4397" data-name="Groupe 4397" transform="translate(541.352 233.175)">
          <g id="Groupe_4396" data-name="Groupe 4396">
            <g id="Groupe_4395" data-name="Groupe 4395">
              <rect id="Rectangle_498" data-name="Rectangle 498" width="3.132" height="164.863" fill="#737373"/>
            </g>
          </g>
        </g>
        <g id="Groupe_4400" data-name="Groupe 4400" transform="translate(533.898 187.893)">
          <g id="Groupe_4399" data-name="Groupe 4399">
            <g id="Groupe_4398" data-name="Groupe 4398">
              <path id="Tracé_13363" data-name="Tracé 13363" d="M220.764,186.631V125.372a2.793,2.793,0,0,1,2.792-2.792h10.465a2.808,2.808,0,0,1,2.792,2.792v61.259a1.876,1.876,0,0,1,.874,1.6,1.907,1.907,0,0,1-1.918,1.918H221.808a1.922,1.922,0,0,1-1.918-1.918A1.876,1.876,0,0,1,220.764,186.631Z" transform="translate(-219.89 -122.58)" fill="#4e5352"/>
            </g>
          </g>
        </g>
        <g id="Groupe_4402" data-name="Groupe 4402" transform="translate(93.955 10.193)">
          <g id="Groupe_4401" data-name="Groupe 4401">
            <path id="Tracé_13364" data-name="Tracé 13364" d="M130.679,64.949a54.042,54.042,0,0,0-80.853,71.335l-7.454,7.575,12.14,11.97,7.673-7.794a54.049,54.049,0,0,0,68.495-83.087Z" transform="translate(-38.696 -49.393)" fill="#4e5352"/>
          </g>
        </g>
        <g id="Groupe_4405" data-name="Groupe 4405" transform="translate(103.445 19.714)">
          <g id="Groupe_4404" data-name="Groupe 4404">
            <g id="Groupe_4403" data-name="Groupe 4403">
              <path id="Tracé_13365" data-name="Tracé 13365" d="M118.858,129.106a44.537,44.537,0,1,1-.461-62.983A44.551,44.551,0,0,1,118.858,129.106Z" transform="translate(-42.604 -53.314)" fill="#e2e2e2"/>
            </g>
          </g>
        </g>
        <g id="Groupe_4408" data-name="Groupe 4408" transform="translate(103.469 19.714)" opacity="0.3">
          <g id="Groupe_4407" data-name="Groupe 4407">
            <g id="Groupe_4406" data-name="Groupe 4406">
              <path id="Tracé_13366" data-name="Tracé 13366" d="M55.885,129.568a44.537,44.537,0,0,1,62.522-63.444" transform="translate(-42.614 -53.314)" fill="#fff"/>
            </g>
          </g>
        </g>
        <g id="Groupe_4411" data-name="Groupe 4411" transform="translate(12.956 103.516)">
          <g id="Groupe_4410" data-name="Groupe 4410">
            <g id="Groupe_4409" data-name="Groupe 4409">
              <path id="Tracé_13367" data-name="Tracé 13367" d="M102.442,101.21,89.379,88.317a1.722,1.722,0,0,0-2.428.024L12.7,161.255l-3.739,3.788a12.585,12.585,0,0,0,17.919,17.676l3.739-3.812,71.845-75.293A1.672,1.672,0,0,0,102.442,101.21Z" transform="translate(-5.336 -87.829)" fill="#737373"/>
            </g>
          </g>
        </g>
        <g id="Groupe_4415" data-name="Groupe 4415" transform="translate(20.468 113.134)">
          <g id="Groupe_4414" data-name="Groupe 4414">
            <g id="Groupe_4413" data-name="Groupe 4413">
              <g id="Groupe_4412" data-name="Groupe 4412">
                <path id="Tracé_13368" data-name="Tracé 13368" d="M98.048,97.957a1.693,1.693,0,0,0-.024-2.4L94.212,91.79,8.43,179.757a12.577,12.577,0,0,0,14.058-2.671l3.739-3.788Z" transform="translate(-8.43 -91.79)" fill="#595959"/>
              </g>
            </g>
          </g>
        </g>
        <g id="Groupe_4417" data-name="Groupe 4417" transform="translate(631.723 350.4)">
          <g id="Groupe_4416" data-name="Groupe 4416">
            <rect id="Rectangle_499" data-name="Rectangle 499" width="73.739" height="32.948" fill="#fff"/>
          </g>
        </g>
        <g id="Groupe_4419" data-name="Groupe 4419" transform="translate(617.883 350.4)">
          <g id="Groupe_4418" data-name="Groupe 4418">
            <rect id="Rectangle_500" data-name="Rectangle 500" width="73.739" height="32.948" fill="#4e5352"/>
          </g>
        </g>
        <g id="Groupe_4421" data-name="Groupe 4421" transform="translate(629.416 359.408)" opacity="0.2">
          <g id="Groupe_4420" data-name="Groupe 4420">
            <rect id="Rectangle_501" data-name="Rectangle 501" width="50.697" height="14.932" fill="#fff"/>
          </g>
        </g>
        <g id="Groupe_4423" data-name="Groupe 4423" transform="translate(44.384 237.351)">
          <g id="Groupe_4422" data-name="Groupe 4422">
            <path id="Tracé_13369" data-name="Tracé 13369" d="M192.782,238.638a2.767,2.767,0,0,1-2.768,2.768H21.048a2.767,2.767,0,0,1-2.768-2.768v-92.92a2.767,2.767,0,0,1,2.768-2.768H190.014a2.767,2.767,0,0,1,2.768,2.768v92.92Z" transform="translate(-18.28 -142.95)" fill="#fff"/>
          </g>
        </g>
        <g id="Groupe_4425" data-name="Groupe 4425" transform="translate(54.898 246.141)">
          <g id="Groupe_4424" data-name="Groupe 4424">
            <rect id="Rectangle_502" data-name="Rectangle 502" width="108.533" height="80.902" fill="#737373"/>
          </g>
        </g>
        <g id="Groupe_4427" data-name="Groupe 4427" transform="translate(54.898 246.141)" opacity="0.15">
          <g id="Groupe_4426" data-name="Groupe 4426">
            <path id="Tracé_13370" data-name="Tracé 13370" d="M22.61,227.472v-80.9H131.143" transform="translate(-22.61 -146.57)" fill="#fff"/>
          </g>
        </g>
        <g id="Groupe_4429" data-name="Groupe 4429" transform="translate(171.88 253.959)">
          <g id="Groupe_4428" data-name="Groupe 4428">
            <path id="Tracé_13371" data-name="Tracé 13371" d="M79.822,154.306a4.516,4.516,0,1,1-4.516-4.516A4.508,4.508,0,0,1,79.822,154.306Z" transform="translate(-70.79 -149.79)" fill="#d0c3f2"/>
          </g>
        </g>
        <g id="Groupe_4431" data-name="Groupe 4431" transform="translate(186.229 253.959)">
          <g id="Groupe_4430" data-name="Groupe 4430">
            <path id="Tracé_13372" data-name="Tracé 13372" d="M85.732,154.306a4.516,4.516,0,1,1-4.516-4.516A4.508,4.508,0,0,1,85.732,154.306Z" transform="translate(-76.7 -149.79)" fill="#00ccb0"/>
          </g>
        </g>
        <g id="Groupe_4433" data-name="Groupe 4433" transform="translate(171.88 268.09)">
          <g id="Groupe_4432" data-name="Groupe 4432">
            <path id="Tracé_13373" data-name="Tracé 13373" d="M79.822,160.126a4.516,4.516,0,1,1-4.516-4.516A4.508,4.508,0,0,1,79.822,160.126Z" transform="translate(-70.79 -155.61)" fill="#e2e2e2"/>
          </g>
        </g>
        <g id="Groupe_4435" data-name="Groupe 4435" transform="translate(186.229 268.09)">
          <g id="Groupe_4434" data-name="Groupe 4434">
            <path id="Tracé_13374" data-name="Tracé 13374" d="M85.732,160.126a4.516,4.516,0,1,1-4.516-4.516A4.508,4.508,0,0,1,85.732,160.126Z" transform="translate(-76.7 -155.61)" fill="#737373"/>
          </g>
        </g>
        <g id="Groupe_4437" data-name="Groupe 4437" transform="translate(207.329 269.498)">
          <g id="Groupe_4436" data-name="Groupe 4436">
            <path id="Tracé_13375" data-name="Tracé 13375" d="M91.606,159.3A3.108,3.108,0,1,1,88.5,156.19,3.1,3.1,0,0,1,91.606,159.3Z" transform="translate(-85.39 -156.19)" fill="#e2e2e2"/>
          </g>
        </g>
        <g id="Groupe_4439" data-name="Groupe 4439" transform="translate(207.329 280.376)">
          <g id="Groupe_4438" data-name="Groupe 4438">
            <path id="Tracé_13376" data-name="Tracé 13376" d="M91.606,163.778A3.108,3.108,0,1,1,88.5,160.67,3.1,3.1,0,0,1,91.606,163.778Z" transform="translate(-85.39 -160.67)" fill="#e2e2e2"/>
          </g>
        </g>
        <g id="Groupe_4441" data-name="Groupe 4441" transform="translate(207.329 291.254)">
          <g id="Groupe_4440" data-name="Groupe 4440">
            <path id="Tracé_13377" data-name="Tracé 13377" d="M91.606,168.258A3.108,3.108,0,1,1,88.5,165.15,3.13,3.13,0,0,1,91.606,168.258Z" transform="translate(-85.39 -165.15)" fill="#e2e2e2"/>
          </g>
        </g>
        <g id="Groupe_4443" data-name="Groupe 4443" transform="translate(176.396 305.19)">
          <g id="Groupe_4442" data-name="Groupe 4442">
            <path id="Tracé_13378" data-name="Tracé 13378" d="M102.223,179a2.767,2.767,0,0,1-2.768,2.768H75.418A2.767,2.767,0,0,1,72.65,179v-5.342a2.767,2.767,0,0,1,2.768-2.768H99.455a2.767,2.767,0,0,1,2.768,2.768Z" transform="translate(-72.65 -170.89)" fill="#737373"/>
          </g>
        </g>
        <g id="Groupe_4445" data-name="Groupe 4445" transform="translate(185.744 295.867)">
          <g id="Groupe_4444" data-name="Groupe 4444">
            <path id="Tracé_13379" data-name="Tracé 13379" d="M84.61,167.05a2.767,2.767,0,0,1,2.768,2.768v24.037a2.767,2.767,0,0,1-2.768,2.768H79.268a2.767,2.767,0,0,1-2.768-2.768V169.818a2.767,2.767,0,0,1,2.768-2.768Z" transform="translate(-76.5 -167.05)" fill="#737373"/>
          </g>
        </g>
        <g id="Groupe_4447" data-name="Groupe 4447" transform="translate(109.164 173.47)">
          <g id="Groupe_4446" data-name="Groupe 4446">
            <path id="Tracé_13380" data-name="Tracé 13380" d="M122.05,142.911a2.435,2.435,0,0,1-2.428,2.428H47.388a2.435,2.435,0,0,1-2.428-2.428V119.068a2.435,2.435,0,0,1,2.428-2.428h72.234a2.435,2.435,0,0,1,2.428,2.428Z" transform="translate(-44.96 -116.64)" fill="#c6cacc"/>
          </g>
        </g>
        <g id="Groupe_4449" data-name="Groupe 4449" transform="translate(186.254 175.923)">
          <g id="Groupe_4448" data-name="Groupe 4448">
            <rect id="Rectangle_503" data-name="Rectangle 503" width="4.516" height="23.528" fill="#4e5352"/>
          </g>
        </g>
        <g id="Groupe_4451" data-name="Groupe 4451" transform="translate(190.745 175.923)">
          <g id="Groupe_4450" data-name="Groupe 4450">
            <rect id="Rectangle_504" data-name="Rectangle 504" width="16.608" height="23.528" fill="#fff"/>
          </g>
        </g>
        <g id="Groupe_4453" data-name="Groupe 4453" transform="translate(197.204 179.589)">
          <g id="Groupe_4452" data-name="Groupe 4452">
            <rect id="Rectangle_505" data-name="Rectangle 505" width="3.691" height="5.754" fill="#4e5352"/>
          </g>
        </g>
        <g id="Groupe_4455" data-name="Groupe 4455" transform="translate(197.204 190.321)">
          <g id="Groupe_4454" data-name="Groupe 4454">
            <rect id="Rectangle_506" data-name="Rectangle 506" width="3.691" height="5.754" fill="#4e5352"/>
          </g>
        </g>
      </g>
      <g id="Groupe_4493" data-name="Groupe 4493" transform="matrix(0.966, 0.259, -0.259, 0.966, 591.925, 120.86)">
        <g id="Groupe_4474" data-name="Groupe 4474" transform="translate(0 0)">
          <g id="Groupe_4459" data-name="Groupe 4459">
            <g id="Groupe_4458" data-name="Groupe 4458">
              <g id="Groupe_4457" data-name="Groupe 4457">
                <rect id="Rectangle_507" data-name="Rectangle 507" width="147.866" height="69.26" fill="#00ccb0"/>
              </g>
            </g>
          </g>
          <g id="Groupe_4462" data-name="Groupe 4462" transform="translate(6.102 6.488)">
            <g id="Groupe_4461" data-name="Groupe 4461">
              <g id="Groupe_4460" data-name="Groupe 4460">
                <path id="Tracé_13381" data-name="Tracé 13381" d="M134.323,10.864c-6.935,0-10.239-5.536-9.941-10.864L10.715.089C11.132,5.506,7.858,11.251.8,11.28c-.268,0-.536-.03-.8-.03L.03,44.824c.179,0,.3-.03.476-.03,7.173,0,10.477,5.983,9.882,11.489l114.679-.06c-.446-5.417,2.857-11.191,9.911-11.191a4.608,4.608,0,0,1,.655.03l-.03-34.228C135.187,10.834,134.77,10.864,134.323,10.864Z" fill="#99ffef"/>
              </g>
            </g>
          </g>
          <g id="Groupe_4465" data-name="Groupe 4465" transform="translate(49.914 10.745)">
            <g id="Groupe_4464" data-name="Groupe 4464" transform="translate(0 0)">
              <g id="Groupe_4463" data-name="Groupe 4463">
                <path id="Tracé_13382" data-name="Tracé 13382" d="M48.039,23.871A24.02,24.02,0,1,1,24.019,0,23.957,23.957,0,0,1,48.039,23.871Z" fill="#00ccb0"/>
              </g>
            </g>
          </g>
          <g id="Groupe_4468" data-name="Groupe 4468" transform="translate(15.596 24.853)">
            <g id="Groupe_4467" data-name="Groupe 4467">
              <g id="Groupe_4466" data-name="Groupe 4466">
                <path id="Tracé_13383" data-name="Tracé 13383" d="M19.7,9.792A9.852,9.852,0,1,1,9.852,0,9.838,9.838,0,0,1,19.7,9.792Z" fill="#00ccb0"/>
              </g>
            </g>
          </g>
          <g id="Groupe_4471" data-name="Groupe 4471" transform="translate(112.477 24.793)">
            <g id="Groupe_4470" data-name="Groupe 4470" transform="translate(0 0)">
              <g id="Groupe_4469" data-name="Groupe 4469">
                <path id="Tracé_13384" data-name="Tracé 13384" d="M19.733,9.792A9.867,9.867,0,1,1,9.852,0,9.857,9.857,0,0,1,19.733,9.792Z" fill="#d3d7d9"/>
              </g>
            </g>
          </g>
          <g id="Groupe_4473" data-name="Groupe 4473" transform="translate(64.26 14.733)">
            <g id="Groupe_4472" data-name="Groupe 4472">
              <path id="Tracé_13385" data-name="Tracé 13385" d="M7.858,37.532V33.157A18.819,18.819,0,0,1,0,31.163l1.4-5.387a16.571,16.571,0,0,0,7.679,2.054c2.619,0,4.435-1.012,4.435-2.857,0-1.756-1.458-2.857-4.881-4.018-4.941-1.667-8.3-3.988-8.3-8.423,0-4.048,2.887-7.233,7.828-8.155V0h4.524V4.048a16.628,16.628,0,0,1,6.7,1.548l-1.339,5.179A15.337,15.337,0,0,0,11.37,9.2c-3.006,0-3.988,1.28-3.988,2.56,0,1.518,1.607,2.5,5.536,3.988,5.477,1.964,7.709,4.494,7.679,8.631,0,4.107-2.947,7.59-8.274,8.483v4.7Z" fill="#fff"/>
            </g>
          </g>
        </g>
        <g id="Groupe_4492" data-name="Groupe 4492" transform="translate(21.519 26.549)">
          <g id="Groupe_4477" data-name="Groupe 4477">
            <g id="Groupe_4476" data-name="Groupe 4476">
              <g id="Groupe_4475" data-name="Groupe 4475">
                <rect id="Rectangle_508" data-name="Rectangle 508" width="147.866" height="69.26" fill="#00ccb0"/>
              </g>
            </g>
          </g>
          <g id="Groupe_4480" data-name="Groupe 4480" transform="translate(6.131 6.518)">
            <g id="Groupe_4479" data-name="Groupe 4479">
              <g id="Groupe_4478" data-name="Groupe 4478">
                <path id="Tracé_13386" data-name="Tracé 13386" d="M134.323,10.864c-6.935,0-10.239-5.536-9.941-10.864L10.715.089C11.161,5.506,7.858,11.28.8,11.28c-.268,0-.536-.03-.8-.03L.03,44.824c.179,0,.3-.03.476-.03,7.173,0,10.477,5.983,9.882,11.489l114.679-.06c-.446-5.417,2.857-11.191,9.911-11.191a4.608,4.608,0,0,1,.655.03l-.03-34.228C135.187,10.834,134.77,10.864,134.323,10.864Z" fill="#99ffef"/>
              </g>
            </g>
          </g>
          <g id="Groupe_4483" data-name="Groupe 4483" transform="translate(49.914 10.745)">
            <g id="Groupe_4482" data-name="Groupe 4482" transform="translate(0 0)">
              <g id="Groupe_4481" data-name="Groupe 4481">
                <path id="Tracé_13387" data-name="Tracé 13387" d="M48.068,23.87A24.035,24.035,0,1,1,24.019,0,23.963,23.963,0,0,1,48.068,23.87Z" fill="#00ccb0"/>
              </g>
            </g>
          </g>
          <g id="Groupe_4486" data-name="Groupe 4486" transform="translate(15.626 24.882)">
            <g id="Groupe_4485" data-name="Groupe 4485" transform="translate(0 0)">
              <g id="Groupe_4484" data-name="Groupe 4484">
                <path id="Tracé_13388" data-name="Tracé 13388" d="M19.7,9.792A9.852,9.852,0,1,1,9.852,0,9.838,9.838,0,0,1,19.7,9.792Z" fill="#00ccb0"/>
              </g>
            </g>
          </g>
          <g id="Groupe_4489" data-name="Groupe 4489" transform="translate(112.477 24.823)">
            <g id="Groupe_4488" data-name="Groupe 4488" transform="translate(0 0)">
              <g id="Groupe_4487" data-name="Groupe 4487">
                <path id="Tracé_13389" data-name="Tracé 13389" d="M19.733,9.792A9.867,9.867,0,1,1,9.852,0,9.857,9.857,0,0,1,19.733,9.792Z" fill="#00ccb0"/>
              </g>
            </g>
          </g>
          <g id="Groupe_4491" data-name="Groupe 4491" transform="translate(64.29 14.763)">
            <g id="Groupe_4490" data-name="Groupe 4490">
              <path id="Tracé_13390" data-name="Tracé 13390" d="M7.858,37.5V33.127A18.82,18.82,0,0,1,0,31.133l1.4-5.387A16.571,16.571,0,0,0,9.078,27.8c2.619,0,4.435-1.012,4.435-2.828,0-1.756-1.458-2.857-4.881-4.018-4.941-1.667-8.3-3.988-8.3-8.423,0-4.048,2.887-7.233,7.828-8.155V0h4.524V4.048a16.628,16.628,0,0,1,6.7,1.548l-1.369,5.179A15.337,15.337,0,0,0,11.34,9.2c-3.006,0-3.988,1.28-3.988,2.56,0,1.518,1.607,2.5,5.536,3.988,5.477,1.964,7.709,4.494,7.679,8.631,0,4.107-2.947,7.59-8.274,8.483v4.7Z" fill="#fff"/>
            </g>
          </g>
        </g>
      </g>
    </g>
  </g>
</svg>
