<svg xmlns="http://www.w3.org/2000/svg" xmlns:xlink="http://www.w3.org/1999/xlink" width="401" height="401" viewBox="0 0 401 401">
  <defs>
    <clipPath id="clip-path">
      <rect id="Rectangle_442" data-name="Rectangle 442" width="401" height="401" transform="translate(0.339 0.339)"/>
    </clipPath>
    <clipPath id="clip-path-2">
      <rect id="Rectangle_441" data-name="Rectangle 441" width="1216" height="1216"/>
    </clipPath>
    <clipPath id="clip-post-contain-logo">
      <rect width="401" height="401"/>
    </clipPath>
  </defs>
  <g id="post-contain-logo" clip-path="url(#clip-post-contain-logo)">
    <g id="iPad_1" data-name="iPad – 1" transform="translate(-0.339 -0.339)" clip-path="url(#clip-path)">
      <g id="Groupe_2985" data-name="Groupe 2985" transform="translate(0.247 74.784)">
        <g id="Groupe_2984" data-name="Groupe 2984" transform="translate(97.812 0)">
          <path id="Tracé_12142" data-name="Tracé 12142" d="M4301.007-1792.648v-243.418l106.036,61.159V-1853Z" transform="translate(-4196.463 2036.074)" fill="none" opacity="0.738"/>
          <path id="Tracé_12143" data-name="Tracé 12143" d="M4068.417-2036.091l-104.755,61.444v121.119l104.755,60.863v-40.176l-73.05-38.434v-84.962l73.05-38.822Z" transform="translate(-3963.662 2036.091)" fill="#ada6e2"/>
          <path id="Tracé_12144" data-name="Tracé 12144" d="M4301.007-1792.648v-243.418l106.036,61.159V-1853Z" transform="translate(-4196.463 2036.074)" fill="none"/>
          <path id="Tracé_12145" data-name="Tracé 12145" d="M16035.539,5805.6l46.418,18.709v84.172l-46.418,17.876Z" transform="translate(-15901.074 -5744.061)" fill="#ada6e2"/>
        </g>
        <text id="CATHY_DOLLE" data-name="CATHY  DOLLE" transform="translate(0 281.497)" fill="#ada6e2" font-size="15" font-family="Lato-Bold, Lato" font-weight="700"><tspan x="0" y="0">C</tspan><tspan y="0" fill="#fff">ATHY </tspan><tspan x="0" y="22">D</tspan><tspan y="22" fill="#fff">OLLE</tspan></text>
        <text id="negative_space" data-name="negative space" transform="translate(0.181 323.241)" fill="#fff" font-size="11" font-family="Lato-Light, Lato" font-weight="300"><tspan x="0" y="0">negative space</tspan></text>
      </g>
    </g>
  </g>
</svg>
