<svg xmlns="http://www.w3.org/2000/svg" xmlns:xlink="http://www.w3.org/1999/xlink" width="226" height="227" viewBox="0 0 226 227">
  <defs>
    <filter id="Rectangle_102" x="0" y="0" width="226" height="227" filterUnits="userSpaceOnUse">
      <feOffset dy="13" input="SourceAlpha"/>
      <feGaussianBlur stdDeviation="8" result="blur"/>
      <feFlood flood-opacity="0.161"/>
      <feComposite operator="in" in2="blur"/>
      <feComposite in="SourceGraphic"/>
    </filter>
  </defs>
  <g id="Groupe_1" data-name="Groupe 1" transform="translate(23.927 1.992)">
    <g id="Groupe_1152" data-name="Groupe 1152" transform="translate(0 9.171)">
      <g id="Groupe_1148" data-name="Groupe 1148" transform="translate(0)">
        <g id="Groupe_1096" data-name="Groupe 1096">
          <g transform="matrix(1, 0, 0, 1, -23.93, -11.16)" filter="url(#Rectangle_102)">
            <rect id="Rectangle_102-2" data-name="Rectangle 102" width="178" height="179" transform="translate(24 11)" fill="#fff"/>
          </g>
          <g id="NJS" transform="translate(45.091 66.491)" style="isolation: isolate">
            <g id="Groupe_1097" data-name="Groupe 1097" transform="translate(0 0)" style="isolation: isolate">
              <path id="Tracé_11909" data-name="Tracé 11909" d="M726.131,758.645a6.987,6.987,0,0,1-1.689,4.919,6.721,6.721,0,0,1-5.265,1.987h-2.931v-5.912h1.042q2.683,0,2.683-2.484V736.688H707.7v28.862h-6.11V736.688h-3.477v-6.011h12.071v-4.868h6.161v4.868h9.786Z" transform="translate(-698.114 -725.809)" fill="rgba(255,255,255,0.87)"/>
              <path id="Tracé_11910" data-name="Tracé 11910" d="M760.279,749.168H756.6v16a13.9,13.9,0,0,1-2.781,8.246,67.815,67.815,0,0,1-5.465,5.862l-3.377-3.875a30.881,30.881,0,0,0,3.775-4.173,9.322,9.322,0,0,0,1.788-5.266l-.05-16.792h-3.726v-6.109h3.626V738.19h-3.626v-6.011h13.513v6.011h-3.825v4.868h3.825Z" transform="translate(-709.162 -727.311)" fill="rgba(255,255,255,0.87)"/>
              <path id="Tracé_11911" data-name="Tracé 11911" d="M805.09,738.19H789.144a6.119,6.119,0,0,0-4.049,1.068q-1.216,1.068-1.217,3.8H805.04v9.588q0,7.452-5.315,11.226-4.669,3.33-12.568,3.329-1.34,0-4.619-.1-2.982-.05-4.67-.05V761.14h7.154q13.957,0,14.008-9.687l-.05-2.334H777.867v-7.352a9.372,9.372,0,0,1,2.832-7.055,9.256,9.256,0,0,1,6.607-2.533H805.09Z" transform="translate(-716.915 -727.311)" fill="rgba(255,255,255,0.87)"/>
            </g>
          </g>
        </g>
      </g>
    </g>
    <rect id="Rectangle_145" data-name="Rectangle 145" width="72" height="18" transform="translate(53.073 0.008)" fill="#f3f" opacity="0.278"/>
  </g>
</svg>
