<svg xmlns="http://www.w3.org/2000/svg" xmlns:xlink="http://www.w3.org/1999/xlink" width="401" height="401" viewBox="0 0 401 401">
  <defs>
    <clipPath id="clip-path">
      <rect id="Rectangle_442" data-name="Rectangle 442" width="401" height="401" transform="translate(0.339 0.339)"/>
    </clipPath>
    <clipPath id="clip-path-2">
      <rect id="Rectangle_441" data-name="Rectangle 441" width="1216" height="1216"/>
    </clipPath>
    <clipPath id="clip-post-contain-logo">
      <rect width="401" height="401"/>
    </clipPath>
  </defs>
  <g id="post-contain-logo" clip-path="url(#clip-post-contain-logo)">
    <g id="iPad_1" data-name="iPad – 1" transform="translate(-0.339 -0.339)" clip-path="url(#clip-path)">
      <g id="Groupe_2985" data-name="Groupe 2985" transform="translate(0.247 74.784)">
        <g id="Groupe_2984" data-name="Groupe 2984" transform="translate(97.812 0)">
          <path id="Tracé_12142" data-name="Tracé 12142" d="M4301.007-1792.648v-243.418l106.036,61.159V-1853Z" transform="translate(-4196.463 2036.074)" fill="none" opacity="0.738"/>
          <path id="Tracé_12143" data-name="Tracé 12143" d="M4068.417-2036.091l-104.755,61.444v121.119l104.755,60.863v-40.176l-73.05-38.434v-84.962l73.05-38.822Z" transform="translate(-3963.662 2036.091)" fill="#ada6e2"/>
          <path id="Tracé_12144" data-name="Tracé 12144" d="M4301.007-1792.648v-243.418l106.036,61.159V-1853Z" transform="translate(-4196.463 2036.074)" fill="none"/>
          <path id="Tracé_12145" data-name="Tracé 12145" d="M16035.539,5805.6l46.418,18.709v84.172l-46.418,17.876Z" transform="translate(-15901.074 -5744.061)" fill="#ada6e2"/>
        </g>
        <g id="Groupe_3895" data-name="Groupe 3895" transform="translate(1.092 270.555)">
          <g id="Groupe_3895-2" data-name="Groupe 3895">
            <path id="Tracé_13114" data-name="Tracé 13114" d="M8.08,8.41a.374.374,0,0,1,.29.13l.8.86a4.42,4.42,0,0,1-1.62,1.25,5.567,5.567,0,0,1-2.31.44,5.523,5.523,0,0,1-2.17-.41A4.81,4.81,0,0,1,1.42,9.53,5.047,5.047,0,0,1,.37,7.78,6.5,6.5,0,0,1,0,5.54,6.032,6.032,0,0,1,.41,3.3,5.057,5.057,0,0,1,3.3.41,6.138,6.138,0,0,1,5.56,0,5.262,5.262,0,0,1,7.67.39,5.093,5.093,0,0,1,9.22,1.41l-.67.94a.536.536,0,0,1-.15.15.473.473,0,0,1-.26.07.565.565,0,0,1-.35-.13c-.12-.09-.28-.19-.46-.3a4.362,4.362,0,0,0-.7-.29,3.664,3.664,0,0,0-1.08-.13,3.615,3.615,0,0,0-1.41.27,3.145,3.145,0,0,0-1.1.76,3.432,3.432,0,0,0-.72,1.2,4.65,4.65,0,0,0-.26,1.59,4.847,4.847,0,0,0,.26,1.63,3.618,3.618,0,0,0,.7,1.2,3.114,3.114,0,0,0,1.04.75,3.267,3.267,0,0,0,1.29.26c.27,0,.52-.02.75-.04a5.12,5.12,0,0,0,.62-.15,3.651,3.651,0,0,0,.53-.25,3.306,3.306,0,0,0,.5-.38.906.906,0,0,1,.16-.11A.329.329,0,0,1,8.08,8.41Z" fill="#ada6e2"/>
          </g>
          <g id="Groupe_3896" data-name="Groupe 3896">
            <path id="Tracé_13115" data-name="Tracé 13115" d="M20.22,10.96H18.66a.668.668,0,0,1-.43-.13.784.784,0,0,1-.24-.33l-.81-2.21H12.69l-.81,2.21a.718.718,0,0,1-.67.45H9.64L13.9.12h2.06ZM13.2,6.87h3.46L15.34,3.26c-.06-.16-.13-.35-.2-.57s-.14-.45-.21-.71c-.07.25-.14.49-.21.71s-.13.41-.2.58Z" fill="#fff"/>
            <path id="Tracé_13116" data-name="Tracé 13116" d="M27.88.12V1.78H24.62v9.19H22.6V1.78H19.32V.12Z" fill="#fff"/>
            <path id="Tracé_13117" data-name="Tracé 13117" d="M38.31,10.96H36.28V6.22H31.2v4.74H29.17V.12H31.2V4.79h5.08V.12h2.03Z" fill="#fff"/>
            <path id="Tracé_13118" data-name="Tracé 13118" d="M45.32,6.75v4.21H43.3V6.75L39.35.12h1.78a.639.639,0,0,1,.42.13,1.018,1.018,0,0,1,.26.32L43.8,4.19c.11.21.21.42.3.61s.16.38.23.57c.06-.19.14-.38.22-.57a5.587,5.587,0,0,1,.3-.6L46.82.58a1,1,0,0,1,.25-.31.594.594,0,0,1,.42-.14h1.78Z" fill="#fff"/>
          </g>
          <g id="Groupe_3897" data-name="Groupe 3897">
            <path id="Tracé_13119" data-name="Tracé 13119" d="M10.26,27.54a5.767,5.767,0,0,1-.4,2.19,4.944,4.944,0,0,1-2.85,2.84,5.956,5.956,0,0,1-2.24.4H.63V22.12H4.77a5.956,5.956,0,0,1,2.24.4,5.116,5.116,0,0,1,1.73,1.12,5.128,5.128,0,0,1,1.12,1.71A5.8,5.8,0,0,1,10.26,27.54Zm-2.06,0a4.98,4.98,0,0,0-.24-1.6,3.513,3.513,0,0,0-.68-1.2,2.842,2.842,0,0,0-1.08-.75,3.8,3.8,0,0,0-1.43-.26H2.66v7.63H4.77A3.8,3.8,0,0,0,6.2,31.1a3.043,3.043,0,0,0,1.08-.75,3.513,3.513,0,0,0,.68-1.2A5,5,0,0,0,8.2,27.54Z" fill="#ada6e2"/>
          </g>
          <g id="Groupe_3898" data-name="Groupe 3898">
            <path id="Tracé_13120" data-name="Tracé 13120" d="M22.25,27.54a5.945,5.945,0,0,1-.4,2.21,5.348,5.348,0,0,1-1.12,1.76A5.065,5.065,0,0,1,19,32.67a5.768,5.768,0,0,1-2.24.42,5.855,5.855,0,0,1-2.25-.42,5.012,5.012,0,0,1-1.74-1.16,5.192,5.192,0,0,1-1.12-1.76,6.114,6.114,0,0,1-.4-2.21,5.908,5.908,0,0,1,.4-2.21,5.348,5.348,0,0,1,1.12-1.76,5.012,5.012,0,0,1,1.74-1.16,5.855,5.855,0,0,1,2.25-.42,5.768,5.768,0,0,1,2.24.42,5.078,5.078,0,0,1,2.85,2.92A6.153,6.153,0,0,1,22.25,27.54Zm-2.07,0a4.98,4.98,0,0,0-.24-1.6,3.356,3.356,0,0,0-.68-1.2,2.98,2.98,0,0,0-1.08-.76,4.062,4.062,0,0,0-2.86,0,2.9,2.9,0,0,0-1.08.76,3.531,3.531,0,0,0-.69,1.2,5.453,5.453,0,0,0,0,3.2,3.375,3.375,0,0,0,.69,1.2,2.921,2.921,0,0,0,1.08.75,4.062,4.062,0,0,0,2.86,0,3.043,3.043,0,0,0,1.08-.75,3.513,3.513,0,0,0,.68-1.2A4.937,4.937,0,0,0,20.18,27.54Z" fill="#fff"/>
            <path id="Tracé_13121" data-name="Tracé 13121" d="M25.85,31.3h4.34v1.67H23.83V22.12h2.02Z" fill="#fff"/>
            <path id="Tracé_13122" data-name="Tracé 13122" d="M33.61,31.3h4.34v1.67H31.59V22.12h2.02Z" fill="#fff"/>
            <path id="Tracé_13123" data-name="Tracé 13123" d="M46.19,22.12v1.6H41.38v3.01h3.79v1.55H41.38v3.07h4.81v1.61H39.35V22.12Z" fill="#fff"/>
          </g>
          <g id="Groupe_3899" data-name="Groupe 3899">
            <path id="Tracé_13124" data-name="Tracé 13124" d="M.61,52.71V47.24H.9a.157.157,0,0,1,.17.14l.05.83a2.982,2.982,0,0,1,.87-.76,2.188,2.188,0,0,1,1.11-.29,2.1,2.1,0,0,1,.79.14,1.492,1.492,0,0,1,.57.41,1.915,1.915,0,0,1,.34.65,2.837,2.837,0,0,1,.12.86v3.5H4.39v-3.5a1.914,1.914,0,0,0-.35-1.21,1.3,1.3,0,0,0-1.08-.44,1.867,1.867,0,0,0-1,.28,2.94,2.94,0,0,0-.82.76v4.1Z" fill="#fff"/>
            <path id="Tracé_13125" data-name="Tracé 13125" d="M8.62,47.15a2.146,2.146,0,0,1,.85.16,2,2,0,0,1,.68.46,2.144,2.144,0,0,1,.45.75,2.952,2.952,0,0,1,.16,1.02.25.25,0,0,1-.04.17.137.137,0,0,1-.11.04H6.67v.1a3.877,3.877,0,0,0,.14,1.08,2.072,2.072,0,0,0,.41.78,1.771,1.771,0,0,0,.64.48,2.063,2.063,0,0,0,.84.16,2.575,2.575,0,0,0,.72-.09,2.856,2.856,0,0,0,.51-.2,3.5,3.5,0,0,0,.33-.2.364.364,0,0,1,.18-.09.143.143,0,0,1,.11.05l.13.18a1.545,1.545,0,0,1-.35.31,2.42,2.42,0,0,1-.48.25,3.413,3.413,0,0,1-.57.16,3.153,3.153,0,0,1-.61.06,2.413,2.413,0,0,1-1.02-.2,2.137,2.137,0,0,1-.79-.57,2.556,2.556,0,0,1-.51-.92,3.992,3.992,0,0,1-.18-1.24,3.506,3.506,0,0,1,.17-1.09,2.488,2.488,0,0,1,.48-.86,2.108,2.108,0,0,1,.78-.56A2.614,2.614,0,0,1,8.62,47.15Zm.01.39a2.056,2.056,0,0,0-.76.13,1.542,1.542,0,0,0-.58.38,2.02,2.02,0,0,0-.39.59,2.625,2.625,0,0,0-.2.78h3.6a2.428,2.428,0,0,0-.12-.79,1.633,1.633,0,0,0-.34-.59,1.535,1.535,0,0,0-.53-.37A1.683,1.683,0,0,0,8.63,47.54Z" fill="#fff"/>
            <path id="Tracé_13126" data-name="Tracé 13126" d="M13.98,47.14a2.29,2.29,0,0,1,.66.09,1.971,1.971,0,0,1,.55.25h1.4v.18q0,.135-.15.15l-.83.06a1.893,1.893,0,0,1,.24.47,1.993,1.993,0,0,1,.08.56,1.886,1.886,0,0,1-.14.72,1.476,1.476,0,0,1-.4.55,1.837,1.837,0,0,1-.61.35,2.468,2.468,0,0,1-.79.13,2.585,2.585,0,0,1-.86-.14,1.225,1.225,0,0,0-.36.31.586.586,0,0,0-.13.35.42.42,0,0,0,.17.36,1.043,1.043,0,0,0,.44.18,3.659,3.659,0,0,0,.62.07c.23.01.47.02.71.04s.48.04.71.07a2.25,2.25,0,0,1,.62.17,1.089,1.089,0,0,1,.44.35.982.982,0,0,1,.17.59,1.341,1.341,0,0,1-.17.65,1.833,1.833,0,0,1-.49.56,2.588,2.588,0,0,1-.78.39,3.262,3.262,0,0,1-1.02.15,3.78,3.78,0,0,1-1.01-.12,2.335,2.335,0,0,1-.73-.32,1.368,1.368,0,0,1-.44-.46,1.117,1.117,0,0,1,.14-1.31,1.768,1.768,0,0,1,.79-.48,1.027,1.027,0,0,1-.44-.27.69.69,0,0,1-.16-.49.672.672,0,0,1,.04-.24,1,1,0,0,1,.13-.25,1.507,1.507,0,0,1,.21-.23,1.64,1.64,0,0,1,.29-.2,1.672,1.672,0,0,1-.61-.6,1.766,1.766,0,0,1-.22-.88,1.886,1.886,0,0,1,.14-.72,1.561,1.561,0,0,1,.4-.55,1.983,1.983,0,0,1,.62-.36A2.213,2.213,0,0,1,13.98,47.14Zm2.03,5.94a.639.639,0,0,0-.13-.42.765.765,0,0,0-.36-.24A1.894,1.894,0,0,0,15,52.3c-.2-.02-.4-.04-.62-.05l-.65-.03a3.532,3.532,0,0,1-.6-.07,2.35,2.35,0,0,0-.39.19,1.5,1.5,0,0,0-.31.24.985.985,0,0,0-.2.3.842.842,0,0,0-.07.35.892.892,0,0,0,.12.45,1.032,1.032,0,0,0,.36.36,2.016,2.016,0,0,0,.59.24,3.512,3.512,0,0,0,1.58,0,2.25,2.25,0,0,0,.63-.26,1.269,1.269,0,0,0,.42-.41A1.04,1.04,0,0,0,16.01,53.08Zm-2.03-2.79a1.811,1.811,0,0,0,.63-.1,1.32,1.32,0,0,0,.46-.28,1.231,1.231,0,0,0,.28-.43,1.688,1.688,0,0,0,.1-.56,1.433,1.433,0,0,0-.1-.56,1.207,1.207,0,0,0-.29-.44,1.419,1.419,0,0,0-.46-.28,1.972,1.972,0,0,0-1.24,0,1.32,1.32,0,0,0-.46.28,1.349,1.349,0,0,0-.29.44,1.467,1.467,0,0,0-.1.56,1.433,1.433,0,0,0,.1.56,1.168,1.168,0,0,0,.29.43,1.419,1.419,0,0,0,.46.28A1.965,1.965,0,0,0,13.98,50.29Z" fill="#fff"/>
            <path id="Tracé_13127" data-name="Tracé 13127" d="M21.22,52.71a.18.18,0,0,1-.2-.15l-.08-.7a5.39,5.39,0,0,1-.45.4,2.586,2.586,0,0,1-.46.3,2.284,2.284,0,0,1-.52.18,2.9,2.9,0,0,1-.62.06,1.905,1.905,0,0,1-.54-.08,1.513,1.513,0,0,1-.47-.25,1.244,1.244,0,0,1-.33-.44,1.408,1.408,0,0,1-.12-.64,1.127,1.127,0,0,1,.2-.64,1.636,1.636,0,0,1,.62-.52,4.026,4.026,0,0,1,1.08-.35,8.767,8.767,0,0,1,1.59-.15v-.57a1.812,1.812,0,0,0-.33-1.17,1.177,1.177,0,0,0-.97-.41,1.878,1.878,0,0,0-.67.11,2.059,2.059,0,0,0-.47.24,3.431,3.431,0,0,0-.31.24.366.366,0,0,1-.2.11.186.186,0,0,1-.17-.1l-.09-.16a3.3,3.3,0,0,1,.9-.65,2.437,2.437,0,0,1,1.07-.22,2.034,2.034,0,0,1,.77.14,1.476,1.476,0,0,1,.55.4,1.717,1.717,0,0,1,.33.63,3.032,3.032,0,0,1,.11.83v3.56h-.22Zm-2.2-.29a2.22,2.22,0,0,0,.59-.07,2.72,2.72,0,0,0,.5-.19,2.494,2.494,0,0,0,.43-.29c.13-.11.26-.24.39-.37V50.08a8.21,8.21,0,0,0-1.34.12,3.605,3.605,0,0,0-.93.26,1.45,1.45,0,0,0-.54.39.812.812,0,0,0-.17.52,1.209,1.209,0,0,0,.09.48.909.909,0,0,0,.24.33.85.85,0,0,0,.35.19A1.537,1.537,0,0,0,19.02,52.42Z" fill="#fff"/>
            <path id="Tracé_13128" data-name="Tracé 13128" d="M24.57,52.8a1.134,1.134,0,0,1-.86-.31,1.279,1.279,0,0,1-.31-.95V47.8h-.79a.169.169,0,0,1-.1-.03.1.1,0,0,1-.04-.09v-.2l.94-.07.13-1.96a.18.18,0,0,1,.04-.09.116.116,0,0,1,.1-.04h.24v2.09h1.72v.39H23.92v3.71a1.142,1.142,0,0,0,.06.39.718.718,0,0,0,.16.27.608.608,0,0,0,.24.15.943.943,0,0,0,.3.05.862.862,0,0,0,.34-.06,1.166,1.166,0,0,0,.25-.13,1.471,1.471,0,0,0,.17-.13.183.183,0,0,1,.1-.06.121.121,0,0,1,.09.06l.14.23a1.576,1.576,0,0,1-.53.37A1.593,1.593,0,0,1,24.57,52.8Z" fill="#fff"/>
            <path id="Tracé_13129" data-name="Tracé 13129" d="M27.91,45.35a.342.342,0,0,1-.04.18.527.527,0,0,1-.11.15.653.653,0,0,1-.15.1.533.533,0,0,1-.19.04.406.406,0,0,1-.19-.04.561.561,0,0,1-.15-.1.5.5,0,0,1-.14-.33.406.406,0,0,1,.04-.19.864.864,0,0,1,.1-.16.492.492,0,0,1,.15-.1.471.471,0,0,1,.38,0,.56.56,0,0,1,.15.1.645.645,0,0,1,.11.16A.406.406,0,0,1,27.91,45.35Zm-.23,1.89v5.47h-.52V47.24Z" fill="#fff"/>
            <path id="Tracé_13130" data-name="Tracé 13130" d="M31.63,52.71h-.46l-2.31-5.47h.41a.159.159,0,0,1,.12.04.55.55,0,0,1,.07.09l1.8,4.32a1.349,1.349,0,0,1,.08.24c.02.08.04.15.06.23.02-.08.04-.16.06-.23a2.25,2.25,0,0,1,.08-.24l1.82-4.32a.359.359,0,0,1,.07-.1.21.21,0,0,1,.11-.04h.4Z" fill="#fff"/>
            <path id="Tracé_13131" data-name="Tracé 13131" d="M36.93,47.15a2.146,2.146,0,0,1,.85.16,2,2,0,0,1,.68.46,2.144,2.144,0,0,1,.45.75,2.952,2.952,0,0,1,.16,1.02.25.25,0,0,1-.04.17.137.137,0,0,1-.11.04H34.97v.1a3.877,3.877,0,0,0,.14,1.08,2.072,2.072,0,0,0,.41.78,1.772,1.772,0,0,0,.64.48,2.063,2.063,0,0,0,.84.16,2.575,2.575,0,0,0,.72-.09,2.855,2.855,0,0,0,.51-.2,3.5,3.5,0,0,0,.33-.2.364.364,0,0,1,.18-.09.143.143,0,0,1,.11.05l.14.18a1.545,1.545,0,0,1-.35.31,2.42,2.42,0,0,1-.48.25,3.413,3.413,0,0,1-.57.16,3.153,3.153,0,0,1-.61.06,2.413,2.413,0,0,1-1.02-.2,2.137,2.137,0,0,1-.79-.57,2.556,2.556,0,0,1-.51-.92,3.992,3.992,0,0,1-.18-1.24,3.506,3.506,0,0,1,.17-1.09,2.488,2.488,0,0,1,.48-.86,2.108,2.108,0,0,1,.78-.56A2.651,2.651,0,0,1,36.93,47.15Zm.01.39a2.056,2.056,0,0,0-.76.13,1.542,1.542,0,0,0-.58.38,2.269,2.269,0,0,0-.4.59,2.625,2.625,0,0,0-.2.78h3.6a2.428,2.428,0,0,0-.12-.79,1.633,1.633,0,0,0-.34-.59,1.535,1.535,0,0,0-.53-.37A1.572,1.572,0,0,0,36.94,47.54Z" fill="#fff"/>
            <path id="Tracé_13132" data-name="Tracé 13132" d="M45.63,47.92a.141.141,0,0,1-.12.08.3.3,0,0,1-.16-.07,1.37,1.37,0,0,0-.25-.15,1.5,1.5,0,0,0-.38-.15,2.188,2.188,0,0,0-.56-.07,1.8,1.8,0,0,0-.54.08,1.223,1.223,0,0,0-.42.23,1.035,1.035,0,0,0-.27.33.91.91,0,0,0-.1.4.668.668,0,0,0,.13.43,1.131,1.131,0,0,0,.35.29,2.776,2.776,0,0,0,.49.21c.18.06.37.12.56.18a5.314,5.314,0,0,1,.56.2,2.116,2.116,0,0,1,.49.27,1.3,1.3,0,0,1,.35.39,1.08,1.08,0,0,1,.13.56,1.668,1.668,0,0,1-.13.67,1.535,1.535,0,0,1-.37.53,1.777,1.777,0,0,1-.6.36,2.3,2.3,0,0,1-.81.13,2.551,2.551,0,0,1-1-.18,2.669,2.669,0,0,1-.75-.48l.13-.19a.435.435,0,0,1,.06-.07.2.2,0,0,1,.09-.02.3.3,0,0,1,.18.09,2.432,2.432,0,0,0,.27.19,2.085,2.085,0,0,0,.42.19,1.846,1.846,0,0,0,.62.09,1.662,1.662,0,0,0,.61-.1,1.2,1.2,0,0,0,.44-.26,1.054,1.054,0,0,0,.27-.39,1.267,1.267,0,0,0,.09-.47.778.778,0,0,0-.13-.46,1.181,1.181,0,0,0-.35-.31,2.192,2.192,0,0,0-.49-.21c-.18-.05-.37-.12-.56-.18s-.38-.12-.56-.19a2.536,2.536,0,0,1-.49-.26,1.187,1.187,0,0,1-.35-.39,1.094,1.094,0,0,1-.13-.57,1.242,1.242,0,0,1,.13-.56,1.262,1.262,0,0,1,.36-.47,1.964,1.964,0,0,1,.57-.32,2.186,2.186,0,0,1,.75-.12,2.479,2.479,0,0,1,.89.15,2.11,2.11,0,0,1,.71.44Z" fill="#fff"/>
            <path id="Tracé_13133" data-name="Tracé 13133" d="M47.35,54.64V47.23h.29a.213.213,0,0,1,.12.03.129.129,0,0,1,.05.11l.05.85a3.026,3.026,0,0,1,.85-.79,2.114,2.114,0,0,1,1.09-.29,1.888,1.888,0,0,1,1.57.7,3.32,3.32,0,0,1,.56,2.09,3.7,3.7,0,0,1-.16,1.12,2.553,2.553,0,0,1-.46.9,2.1,2.1,0,0,1-.75.6,2.464,2.464,0,0,1-1.99.02,1.936,1.936,0,0,1-.7-.61v2.67h-.52Zm2.29-7.07a1.809,1.809,0,0,0-.99.28,2.559,2.559,0,0,0-.78.79v2.87a1.844,1.844,0,0,0,.7.67,1.887,1.887,0,0,0,.87.19,1.93,1.93,0,0,0,.85-.18,1.726,1.726,0,0,0,.61-.5,2.121,2.121,0,0,0,.37-.77,3.837,3.837,0,0,0,.12-.99,2.89,2.89,0,0,0-.45-1.79A1.58,1.58,0,0,0,49.64,47.57Z" fill="#fff"/>
            <path id="Tracé_13134" data-name="Tracé 13134" d="M56.72,52.71a.18.18,0,0,1-.2-.15l-.08-.7a5.39,5.39,0,0,1-.45.4,2.586,2.586,0,0,1-.46.3,2.284,2.284,0,0,1-.52.18,2.9,2.9,0,0,1-.62.06,1.905,1.905,0,0,1-.54-.08,1.513,1.513,0,0,1-.47-.25,1.244,1.244,0,0,1-.33-.44,1.408,1.408,0,0,1-.12-.64,1.127,1.127,0,0,1,.2-.64,1.636,1.636,0,0,1,.62-.52,4.026,4.026,0,0,1,1.08-.35,8.767,8.767,0,0,1,1.59-.15v-.57a1.812,1.812,0,0,0-.33-1.17,1.177,1.177,0,0,0-.97-.41,1.878,1.878,0,0,0-.67.11,2.059,2.059,0,0,0-.47.24,3.431,3.431,0,0,0-.31.24.366.366,0,0,1-.2.11.186.186,0,0,1-.17-.1l-.09-.16a3.3,3.3,0,0,1,.9-.65,2.437,2.437,0,0,1,1.07-.22,2.034,2.034,0,0,1,.77.14,1.476,1.476,0,0,1,.55.4,1.717,1.717,0,0,1,.33.63,3.032,3.032,0,0,1,.11.83v3.56h-.22Zm-2.2-.29a2.22,2.22,0,0,0,.59-.07,2.72,2.72,0,0,0,.5-.19,2.494,2.494,0,0,0,.43-.29c.13-.11.26-.24.39-.37V50.08a8.21,8.21,0,0,0-1.34.12,3.605,3.605,0,0,0-.93.26,1.45,1.45,0,0,0-.54.39.812.812,0,0,0-.17.52,1.209,1.209,0,0,0,.09.48.909.909,0,0,0,.24.33.85.85,0,0,0,.35.19A1.537,1.537,0,0,0,54.52,52.42Z" fill="#fff"/>
            <path id="Tracé_13135" data-name="Tracé 13135" d="M62.18,47.97c-.02.02-.04.03-.05.05a.145.145,0,0,1-.07.02.326.326,0,0,1-.15-.07,1.736,1.736,0,0,0-.26-.16,2.214,2.214,0,0,0-.4-.16,1.959,1.959,0,0,0-.58-.07,2.031,2.031,0,0,0-.84.17,1.7,1.7,0,0,0-.62.48,2.17,2.17,0,0,0-.38.76,3.988,3.988,0,0,0,0,2.02,2.3,2.3,0,0,0,.38.75,1.585,1.585,0,0,0,.6.46,1.815,1.815,0,0,0,.78.16,2.1,2.1,0,0,0,.66-.09,2.287,2.287,0,0,0,.44-.2,1.871,1.871,0,0,0,.28-.2.291.291,0,0,1,.16-.09.143.143,0,0,1,.11.05l.16.15a1.581,1.581,0,0,1-.32.31,2.018,2.018,0,0,1-.43.25,2.738,2.738,0,0,1-.53.16,2.88,2.88,0,0,1-.59.06,2.24,2.24,0,0,1-.95-.19,2.023,2.023,0,0,1-.74-.55,2.564,2.564,0,0,1-.48-.88,3.639,3.639,0,0,1-.17-1.19,3.689,3.689,0,0,1,.17-1.14,2.63,2.63,0,0,1,.48-.89,2.156,2.156,0,0,1,.78-.58,2.524,2.524,0,0,1,1.05-.21,2.555,2.555,0,0,1,.95.17,2.222,2.222,0,0,1,.72.46Z" fill="#fff"/>
            <path id="Tracé_13136" data-name="Tracé 13136" d="M65.65,47.15a2.146,2.146,0,0,1,.85.16,2,2,0,0,1,.68.46,2.144,2.144,0,0,1,.45.75,2.952,2.952,0,0,1,.16,1.02.25.25,0,0,1-.04.17.137.137,0,0,1-.11.04H63.7v.1a3.877,3.877,0,0,0,.14,1.08,2.072,2.072,0,0,0,.41.78,1.772,1.772,0,0,0,.64.48,2.063,2.063,0,0,0,.84.16,2.575,2.575,0,0,0,.72-.09,2.856,2.856,0,0,0,.51-.2,3.5,3.5,0,0,0,.33-.2.364.364,0,0,1,.18-.09.143.143,0,0,1,.11.05l.13.18a1.545,1.545,0,0,1-.35.31,2.42,2.42,0,0,1-.48.25,3.413,3.413,0,0,1-.57.16,3.153,3.153,0,0,1-.61.06,2.413,2.413,0,0,1-1.02-.2,2.137,2.137,0,0,1-.79-.57,2.556,2.556,0,0,1-.51-.92,3.992,3.992,0,0,1-.18-1.24,3.506,3.506,0,0,1,.17-1.09,2.488,2.488,0,0,1,.48-.86,2.108,2.108,0,0,1,.78-.56A2.614,2.614,0,0,1,65.65,47.15Zm.01.39a2.056,2.056,0,0,0-.76.13,1.542,1.542,0,0,0-.58.38,2.269,2.269,0,0,0-.4.59,2.625,2.625,0,0,0-.2.78h3.6a2.427,2.427,0,0,0-.12-.79,1.634,1.634,0,0,0-.34-.59,1.535,1.535,0,0,0-.53-.37A1.6,1.6,0,0,0,65.66,47.54Z" fill="#fff"/>
          </g>
        </g>
      </g>
    </g>
  </g>
</svg>
