<svg xmlns="http://www.w3.org/2000/svg" width="102.618" height="129.999" viewBox="0 0 102.618 129.999">
  <g id="Groupe_3625" data-name="Groupe 3625" transform="translate(4902.801 -14132.076)">
    <path id="Tracé_12368" data-name="Tracé 12368" d="M1150.7,592.076s-.17.609-.488,1.754l-1.44,4.838c-.62,2.061-1.358,4.541-2.11,7.338s-1.52,5.915-2.064,9.217a44.688,44.688,0,0,0-.656,10.146,26.458,26.458,0,0,0,2.379,9.6,32.484,32.484,0,0,0,6.073,8.67c.64.7,1.367,1.378,2.063,2.066.758.662,1.463,1.355,2.268,2.01l1.18.993,1.236.97,1.362,1.073,1.438,1.115c2.044,1.65,4.033,3.3,5.989,5.133a63.525,63.525,0,0,1,5.667,5.979,44.924,44.924,0,0,1,4.877,7.121,41.874,41.874,0,0,1,1.925,3.99,35.211,35.211,0,0,1,1.4,4.248,32.155,32.155,0,0,1,1.089,8.643q-.053,1.053-.106,2.092l-.082,1.278-.136.8q-.136.8-.271,1.585l-.426,2-.223.98-.26.886q-.268.866-.533,1.722c-.4,1.119-.809,2.209-1.268,3.25a43.69,43.69,0,0,1-3.092,5.741,37.951,37.951,0,0,1-7.35,8.413,29.047,29.047,0,0,1-7.139,4.49l-1.505.627c-.472.186-.951.3-1.37.431a14.14,14.14,0,0,1-2.166.531c-1.193.2-1.812.272-1.812.272s.456-.436,1.312-1.25a20.954,20.954,0,0,0,1.465-1.515,27.468,27.468,0,0,0,1.783-2.121,35.092,35.092,0,0,0,3.787-6.094,41.724,41.724,0,0,0,3.043-8.35,40.365,40.365,0,0,0,.92-4.82c.079-.835.174-1.671.235-2.514.016-.42.031-.845.047-1.271l.027-.63-.026-.559c-.014-.371-.031-.74-.027-1.108-.026-.523-.053-1.052-.078-1.584l-.039-.8c-.007.1.009-.295-.014.211l-.008-.035-.014-.073-.027-.146-.052-.289c-.061-.386-.121-.771-.183-1.16a20.873,20.873,0,0,0-1.453-4.416c-.269-.727-.744-1.413-1.087-2.132-.472-.7-.851-1.409-1.4-2.1a36.535,36.535,0,0,0-3.549-4.207c-1.313-1.413-2.883-2.787-4.457-4.2-1.617-1.388-3.354-2.823-5.082-4.192l-2.883-2.309c-1.065-.849-2.1-1.748-3.115-2.693a54.4,54.4,0,0,1-5.773-6.116,41.664,41.664,0,0,1-8.02-15.243,36.16,36.16,0,0,1-.666-16.158,44.3,44.3,0,0,1,4.52-12.613,59.173,59.173,0,0,1,5.873-8.888,67.417,67.417,0,0,1,5.336-5.968c.771-.786,1.492-1.466,2.131-2.043.624-.59,1.176-1.063,1.628-1.444Z" transform="translate(-6032 13540)" fill="#fff"/>
    <path id="Tracé_12369" data-name="Tracé 12369" d="M1206.415,603.792s-.074.47-.213,1.35-.439,2.142-.732,3.7c-.137.785-.322,1.625-.51,2.531-.17.907-.354,1.889-.549,2.936-.381,2.064-.742,4.345-.961,6.694-.1,1.177-.152,2.353-.172,3.536a27.513,27.513,0,0,0,.264,3.436,16.191,16.191,0,0,0,1.94,6.021,24.825,24.825,0,0,0,4.106,5.347c.389.454.96.876,1.42,1.325a19.5,19.5,0,0,0,1.511,1.33c.55.437,1.108.861,1.644,1.316l.4.339.551.427,1.042.8c1.519,1.23,2.989,2.447,4.448,3.835a46.645,46.645,0,0,1,4.258,4.564,30.767,30.767,0,0,1,6.214,12.049,24.866,24.866,0,0,1,.732,6.826q-.057.825-.116,1.639l-.088,1.052-.122.573q-.123.576-.244,1.146c-.112.532-.243,1.055-.37,1.57l-.195.767-.22.673-.454,1.306c-.338.847-.673,1.668-1.059,2.448a32.032,32.032,0,0,1-2.533,4.271,27.46,27.46,0,0,1-5.9,6.081,20.859,20.859,0,0,1-5.617,3.018l-1.169.378c-.366.11-.735.164-1.059.234a10.023,10.023,0,0,1-1.661.248c-.91.063-1.376.061-1.376.061l.876-1.038c.287-.31.6-.748.96-1.23s.74-1.049,1.136-1.679a26.073,26.073,0,0,0,2.266-4.62,30.771,30.771,0,0,0,1.6-6.017,28.1,28.1,0,0,0,.361-3.352q.014-.841.026-1.711c-.011-.283-.022-.567-.033-.854l-.013-.419-.054-.346c-.032-.228-.067-.452-.083-.674-.035-.378-.069-.758-.1-1.141l-.053-.583,0-.037c-.023.513-.011.129-.018.237l-.014-.044-.025-.09-.049-.179-.172-.707a13.664,13.664,0,0,0-1.1-2.6c-.185-.42-.518-.821-.741-1.244-.321-.415-.566-.831-.939-1.256a27.333,27.333,0,0,0-2.375-2.631c-.881-.91-1.963-1.824-3.046-2.784-1.12-.939-2.338-1.945-3.542-2.9l-1.016-.811-.475-.383-.6-.5c-.8-.669-1.568-1.366-2.346-2.05a24.581,24.581,0,0,1-2.243-2.26,29.063,29.063,0,0,1-2.123-2.432,32.346,32.346,0,0,1-6.047-11.914c-.249-1.1-.507-2.191-.653-3.279-.1-1.1-.171-2.186-.221-3.249a29.584,29.584,0,0,1,.172-3.109,16.683,16.683,0,0,1,.473-2.917,28.881,28.881,0,0,1,1.6-5.181c.32-.792.715-1.508,1.061-2.23a17.412,17.412,0,0,1,1.106-2.046,40.418,40.418,0,0,1,4.77-6.368,44.783,44.783,0,0,1,4.31-4.14,21.526,21.526,0,0,1,1.709-1.356c.505-.381.951-.694,1.313-.947Z" transform="translate(-6032 13540)" fill="#fff"/>
  </g>
</svg>
